<svg width="529" height="449" viewBox="0 0 529 449" fill="none" xmlns="http://www.w3.org/2000/svg">
<path d="M388.349 81.69C392.855 84.5646 396.425 88.7178 398.617 93.6325C401.556 100.604 403.626 107.92 404.777 115.41C403.077 115.455 401.385 115.672 399.727 116.056C399.532 116.056 398.422 116.646 398.228 117.265C397.339 120.38 396.662 123.553 396.202 126.762L340.702 127.1C340.064 127.1 340.147 127.858 340.702 127.886C340.702 127.886 391.374 128.673 396.202 128.701C394.981 138.93 396.008 150.17 403.168 157.419C409.911 164.163 432.832 165.119 441.352 158.684C448.428 153.317 450.176 137.806 449.677 128.701C451.342 128.701 488.86 128.027 492.578 127.886C492.681 127.886 492.78 127.845 492.853 127.771C492.926 127.697 492.967 127.597 492.967 127.493C492.967 127.389 492.926 127.289 492.853 127.215C492.78 127.141 492.681 127.1 492.578 127.1C486.251 127.1 449.593 126.819 449.593 126.819C448.844 118.389 446.818 117.546 446.818 117.152C446.796 116.892 446.692 116.646 446.522 116.449C446.353 116.252 446.126 116.115 445.875 116.056C443.461 115.579 441.009 115.325 438.549 115.298C442.434 108.975 445.764 91.7779 451.869 80.2569C460.915 63.0878 494.965 79.442 494.41 64.268C493.744 47.408 475.262 37.9383 455.421 46.8741C436.579 55.3041 431.667 94.6441 431.334 115.185C425.645 115.185 428.392 115.354 420.234 115.185C427.366 105.575 436.44 73.541 434.858 51.1453C433.046 36.2825 426.869 22.3131 417.126 11.0466C408.579 1.35206 398.561 -2.75055 391.013 5.03315C379.913 16.2732 390.125 28.8339 399.616 41.5632C410.05 55.6132 413.962 62.6101 415.378 82.6173C416.041 93.4722 415.836 104.364 414.767 115.185H411.687C414.073 107.289 410.993 89.8952 408.745 81.7181C405.526 70.169 400.032 58.5356 391.318 50.5271C381.025 41.5268 368.506 35.5334 355.105 33.1894C346.918 31.7844 339.925 32.3183 336.124 34.6225C334.726 35.3588 333.646 36.5928 333.093 38.0869C332.539 39.5811 332.551 41.2296 333.127 42.7153C337.733 57.9736 370.312 70.45 388.349 81.69ZM455.976 48.6725C474.541 40.2425 491.635 49.094 492.217 64.3804C492.661 76.0981 459.278 61.5704 450.176 79.5263C443.849 91.9465 441.046 109.312 437.217 115.326H435.247C438.022 102.934 444.82 75.3675 452.812 65.6168C463.024 52.9999 480.812 60.3621 481.589 60.1654C481.894 60.1654 482.2 59.6596 481.284 59.3224C470.184 55.2479 458.89 55.3322 451.342 64.3804C442.267 75.227 436.551 101.36 434.164 115.41H431.778C432.527 95.74 437.966 56.681 455.976 48.6725ZM416.793 82.5892C415.683 62.7506 412.075 55.4727 401.114 40.4392C392.123 28.2157 382.494 16.5542 392.428 6.35386C399.199 -0.614945 408.024 3.54385 415.683 12.3111C425.061 23.3043 430.976 36.888 432.666 51.3139C434.47 74.0749 425.312 106.755 418.791 115.213H417.32C420.288 102.346 422.21 89.2548 423.064 76.07C423.703 64.83 423.508 57.0182 420.289 47.2394C417.645 39.7939 413.973 32.7648 409.384 26.3611C407.193 23.2025 404.782 20.2068 402.169 17.3972C402.102 17.3152 402.007 17.2632 401.903 17.2527C401.799 17.2421 401.695 17.2739 401.614 17.341C401.533 17.408 401.481 17.5049 401.471 17.6103C401.461 17.7157 401.492 17.821 401.558 17.903C402.253 18.6384 402.902 19.4174 403.501 20.2353C412.159 31.4753 420.706 47.8857 421.372 62.3853C422.038 76.8849 419.179 101.079 416.543 115.41H415.766C416.992 104.516 417.335 93.5395 416.793 82.5892ZM445.07 118.445C449.649 122.688 448.206 150.872 439.909 157.167C431.611 163.461 409.994 161.972 404.111 156.211C394.843 147.191 395.786 130.303 398.95 117.77C399.147 118.033 399.417 118.229 399.727 118.332C401.86 118.831 404.033 119.132 406.22 119.232C403.503 129.429 403.979 140.229 407.58 150.142C407.712 150.425 407.951 150.643 408.242 150.748C408.533 150.854 408.854 150.838 409.134 150.704C409.414 150.569 409.629 150.328 409.733 150.033C409.837 149.738 409.821 149.413 409.689 149.13C406.192 142.049 405.249 126.313 407.275 119.428C415.933 119.822 439.104 119.99 445.07 118.445ZM390.125 51.9602C408.94 68.8202 413.768 106.165 410.854 115.269H409.134C408.74 107.461 407.398 99.7317 405.138 92.2556C399.144 72.5856 389.098 60.5026 373.697 51.3982C365.652 46.7382 357.042 43.1582 348.084 40.7483C347.981 40.7222 347.872 40.7386 347.781 40.7939C347.69 40.8493 347.624 40.939 347.598 41.0433C347.573 41.1476 347.589 41.2581 347.643 41.3503C347.698 41.4425 347.787 41.509 347.89 41.5351C358.347 44.8925 368.272 49.7569 377.36 55.9785C387.438 62.7718 395.306 72.4311 399.976 83.7413C404.408 93.7387 407.219 104.394 408.301 115.298H405.693C404.666 107.585 402.69 100.033 399.81 92.8176C397.559 87.6291 393.867 83.2159 389.182 80.1164C370.839 68.6797 339.232 56.1471 335.014 42.0971C331.101 29.1992 368.813 32.6274 390.125 51.9602ZM150.171 196.647C113.208 183.637 80.0744 177.82 59.4561 172.565C59.2008 172.493 58.9336 172.473 58.6705 172.507C58.4075 172.542 58.154 172.63 57.9253 172.766C57.6966 172.902 57.4974 173.083 57.3395 173.299C57.1817 173.515 57.0686 173.761 57.0069 174.022C56.9452 174.283 56.9363 174.554 56.9805 174.819C57.0248 175.084 57.1215 175.337 57.2647 175.563C57.4079 175.789 57.5947 175.984 57.8139 176.135C58.0331 176.286 58.2802 176.391 58.5404 176.443C71.8049 179.675 91.8404 183.384 113.513 188.47C149.311 196.9 150.088 199.401 150.67 197.659C150.733 197.457 150.715 197.239 150.622 197.051C150.529 196.862 150.367 196.717 150.171 196.647ZM443.072 219.38C443.072 219.314 443.059 219.248 443.034 219.186C443.009 219.125 442.972 219.069 442.926 219.022C442.879 218.975 442.824 218.938 442.764 218.913C442.703 218.887 442.638 218.874 442.573 218.874C418.236 218.874 394.565 224.494 381.162 225.759C380.999 225.773 380.84 225.82 380.695 225.897C380.55 225.974 380.422 226.08 380.319 226.209C380.215 226.337 380.138 226.486 380.092 226.645C380.046 226.804 380.033 226.971 380.052 227.136C380.066 227.302 380.112 227.464 380.188 227.612C380.264 227.76 380.368 227.891 380.495 227.998C380.621 228.105 380.767 228.186 380.925 228.236C381.082 228.285 381.248 228.303 381.412 228.288C391.235 227.304 408.246 223.539 424.174 221.459C441.851 219.38 443.1 220.644 443.072 219.38ZM359.239 277.856C359.263 277.81 359.278 277.76 359.283 277.708C359.287 277.656 359.282 277.604 359.266 277.554C359.251 277.504 359.226 277.458 359.193 277.418C359.159 277.379 359.119 277.346 359.073 277.322L358.379 276.957L358.213 277.8C358.684 278.025 359.045 278.39 359.239 277.856Z" fill="#AD6A6C"/>
<path d="M527.793 284.881C520.661 283.391 503.04 283.982 495.769 284.628C501.763 263.89 507.952 236.858 510.449 221.965C511.354 217.844 511.745 213.624 511.615 209.404C511.524 209.025 511.356 208.67 511.122 208.36C510.888 208.051 510.592 207.794 510.255 207.606C499.155 200.553 382.855 216.036 374.752 220.11C372.337 221.319 370.173 227.416 369.202 230.17C362.014 218.199 362.764 215.361 354.744 196.45C349.746 184.132 343.408 172.417 335.846 161.522C336.04 160.032 343.727 101.894 335.485 86.3543C329.935 75.9573 299.882 72.3043 288.31 71.3208C288.31 70.7026 286.867 60.0808 286.257 55.2757C296.025 47.0143 300.132 31.8122 289.531 29.2551C282.011 27.4567 252.319 21.7243 230.202 27.5129C216.327 31.1659 205.227 39.3711 204.283 55.6129C203.911 61.7803 204.284 67.9706 205.393 74.0465C191.047 75.6482 166.349 78.0367 153.751 82.8418C137.545 89.0238 144.371 160.819 146.092 166.636C145.148 168.996 144.26 171.385 143.455 173.605C103.079 163.18 12.6975 143.734 8.67373 144.1C7.62566 144.087 6.59072 144.337 5.66111 144.827C4.7315 145.317 3.93609 146.033 3.34573 146.91C2.26348 147.163 1.87498 148.708 1.68073 149.72C-1.09427 164.669 3.92848 253.943 4.81648 269.089C6.28723 274.54 49.05 286.37 54.6 287.916C54.8775 295.306 56.3482 332.004 56.6535 339.535C54.2392 339.09 51.8495 338.518 49.494 337.821C44.5545 335.77 25.629 354.428 27.294 352.883C20.0512 359.402 98.8612 380.842 105.16 379.044C111.46 377.246 123.919 365.191 121.81 358.475C121.227 357.28 120.244 356.334 119.035 355.805C113.069 352.63 97.2795 348.724 90.7027 347.122C91.341 333.522 91.341 311.21 91.3132 297.666C99.111 299.633 143.372 310.48 151.364 310.339C151.937 310.348 152.502 310.202 153.001 309.918C155.554 309.553 158.551 308.906 158.801 306.265C158.801 305.478 159.439 298.622 160.244 288.449C179.808 296.008 203.534 295.446 207.752 293.704C208.889 293.149 209.851 292.283 210.527 291.203C210.721 291.456 210.805 291.4 212.275 291.625C217.825 292.524 226.705 293.367 231.7 290.726C238.777 291.878 259.284 293.536 260.81 286.595C261.004 285.668 261.282 283.785 261.559 281.509C282.094 282.633 355.021 282.127 355.299 282.127L353.606 289.854C353.563 289.791 353.505 289.739 353.437 289.705C353.369 289.67 353.294 289.654 353.218 289.658C353.218 289.489 353.218 289.433 353.218 289.658C341.854 288.751 330.452 288.451 319.057 288.759C315.006 288.955 304.322 289.461 304.128 293.451C302.709 296.842 302.503 300.629 303.545 304.157C304.156 306.377 309.317 309.974 311.232 311.295C300.382 310.199 294.055 310.62 290.78 311.801C290.001 311.938 289.275 312.292 288.683 312.822C288.091 313.352 287.656 314.038 287.426 314.804C287.195 315.57 287.18 316.386 287.38 317.16C287.58 317.935 287.989 318.638 288.56 319.191C292.279 324.361 300.021 326.103 300.853 332.876C302.435 345.717 270.19 360.245 258.424 365.331C264.334 357.463 280.18 332.707 272.493 326.722C263.946 320.062 190.658 317.14 183.915 318.882C179.17 320.118 144.288 346.223 144.926 355.412C145.37 361.397 179.697 367.27 186.079 368.394C193.267 369.63 244.549 377.723 250.681 373.761C251.982 373.23 253.164 372.438 254.155 371.434C255.147 370.43 255.929 369.233 256.453 367.916C267.08 364.218 277.307 359.435 286.978 353.641C302.241 344.059 310.788 332.201 295.692 322.226C293.888 321.046 288.949 317.449 289.67 315.425C291.224 310.958 312.675 312.615 312.98 312.615C322.942 319.191 342.007 329.335 353.245 332.285C365.122 335.461 420.622 329.307 434.026 327.593C435.552 333.213 437.023 338.439 437.994 341.643C435.913 341.811 429.974 342.345 428.309 343.666C427.393 344.397 427.421 345.633 428.892 346.476C428.892 355.889 427.754 384.046 430.529 396.747C431.584 401.496 432.805 403.463 437.661 405.177C446.846 408.184 464.495 407.116 473.736 404.615C479.48 403.041 480.229 401.805 481.145 398.714C484.309 388.204 484.142 357.182 483.92 346.167C484.098 346.037 484.242 345.866 484.342 345.668C484.442 345.47 484.494 345.251 484.494 345.029C484.494 344.807 484.442 344.588 484.342 344.39C484.242 344.192 484.098 344.021 483.92 343.891C481.867 342.927 479.657 342.355 477.399 342.205C477.787 339.058 479.869 321.467 480.174 318.376C481.624 317.495 482.919 316.374 484.003 315.06C485.7 312.973 486.803 310.457 487.195 307.782C489.97 304.101 493.966 290.36 495.27 285.864C507.646 286.398 525.795 285.668 527.488 285.864C527.616 285.905 527.756 285.893 527.876 285.83C527.995 285.766 528.085 285.658 528.126 285.527C528.166 285.397 528.154 285.255 528.092 285.134C528.029 285.013 527.922 284.922 527.793 284.881ZM152.696 345.521C154.555 343.441 156.748 341.277 159.079 339.086C168.985 329.813 181.584 320.483 184.331 319.781C190.991 318.039 264.14 322.591 271.577 328.211C272.826 329.166 273.076 331.021 272.826 333.241C271.827 342.064 262.725 356.62 257.425 363.729C251.431 358.503 160.633 346.616 152.696 345.521ZM288.671 73.344C299.272 74.3556 328.992 77.8119 334.098 87.1973C341.313 100.404 336.873 145.449 335.097 160.257C333.543 158.15 331.933 156.155 330.296 154.328C320.889 143.875 304.738 138.62 291.058 135.951C282.269 134.401 273.404 133.341 264.501 132.775C264.223 132.775 264.667 133.197 262.475 128.645C259.201 121.816 259.006 121.929 259.339 121.732C262.978 121.536 266.582 120.914 270.079 119.878C279.458 117.068 285.036 111.448 287.672 97.791C289.104 89.6966 289.402 81.4385 288.56 73.2597L288.671 73.344ZM264.778 133.647C266.527 133.899 266.998 133.871 267.137 133.956C267.137 134.658 273.214 167.676 252.402 169.193C235.197 170.626 223.875 146.179 217.77 129.853C219.99 129.488 221.766 129.235 222.959 129.066C223.542 141.88 241.746 165.119 251.847 163.489C263.197 161.606 268.774 144.128 264.778 133.647ZM223.348 81.9426C223.596 80.6889 224.151 79.5181 224.96 78.5366C225.769 77.5551 226.808 76.794 227.982 76.3226C233.532 74.9457 233.532 81.9426 237.944 81.5492C243.494 81.1839 237.306 68.1455 242.079 60.1932C247.268 51.426 268.303 69.1571 285.313 56.0063C287.367 70.815 289.615 82.336 286.479 97.4538C283.704 110.717 278.542 115.606 269.635 118.248C265.974 119.101 262.268 119.739 258.535 120.159C258.237 120.329 257.987 120.573 257.807 120.868C257.627 121.163 257.525 121.499 257.508 121.845C257.508 122.828 260.283 127.858 262.864 133.731C266.721 142.948 261.698 159.695 251.542 161.297C244.327 162.449 230.202 146.067 226.178 134.49C224.402 129.375 224.929 129.179 228.065 109.2C232.477 109.509 233.393 100.77 233.615 96.2455C233.661 95.2864 233.332 94.3475 232.699 93.6322C230.701 91.4123 229.064 93.9975 225.179 89.08C224.331 88.1259 223.723 86.9796 223.404 85.7375C223.085 84.4953 223.066 83.1938 223.348 81.9426ZM205.782 76.0697C209.5 93.2669 219.268 105.209 225.984 108.525C224.763 116.421 223.375 125.217 223.015 127.886C207.002 128.699 191.211 132.017 176.2 137.721C169.535 140.306 163.323 143.958 157.802 148.54C154.75 132.523 162.603 101.219 161.632 92.3396C161.188 88.5742 160.133 84.584 156.498 83.7691C168.93 79.807 191.962 77.559 205.782 76.0697ZM154.833 84.4997C155.496 84.5225 156.148 84.6812 156.749 84.9662C157.35 85.2511 157.887 85.6564 158.329 86.1576C159.58 88.0693 160.211 90.3286 160.133 92.6206C160.744 101.051 152.113 132.129 156.97 149.354C152.292 153.796 148.75 159.321 146.647 165.456C144.427 151.771 140.736 89.4734 154.833 84.4997ZM55.1272 212.523C55.3492 211.203 57.7357 210.612 59.04 210.388C68.6692 208.786 88.677 214.35 88.233 221.122C87.567 231.154 90.6195 352.714 88.011 357.182C84.903 362.549 67.92 359.571 61.149 354.794C58.0687 352.63 58.1242 350.775 58.2075 351.141C55.8487 255.46 54.7387 214.715 55.1272 212.523ZM119.452 359.402C120.867 364.179 109.739 375.166 104.578 376.627C99.4162 378.089 23.3257 358.137 28.293 353.585C25.9897 355.693 40.6695 342.008 47.1352 339.816C47.6506 339.556 48.2395 339.487 48.8002 339.62C49.5495 339.957 52.491 340.715 56.7367 341.727C56.9865 347.656 57.153 351.169 57.153 351.169C58.7902 359.43 84.903 365.668 89.454 358.053C90.1507 355.355 90.5234 352.581 90.564 349.792C94.8097 350.86 116.593 356.227 119.452 359.402ZM151.364 307.951C144.066 308.232 98.6392 297.441 91.3132 295.699C91.1745 262.766 90.5085 225.843 90.8415 221.29C91.5075 210.95 65.5335 205.33 56.376 208.364C55.4685 208.566 54.6345 209.02 53.9678 209.675C53.3011 210.331 52.8281 211.161 52.602 212.074C51.9915 215.811 54.378 282.324 54.5167 286.314C49.9935 285.077 7.61923 273.641 5.87098 269.06C5.39923 258.72 0.875977 158.74 4.09498 149.27C19.191 153.092 148.117 179.421 157.192 185.8C159.467 192.123 154.278 299.015 151.364 307.951ZM157.885 306.293C157.885 308.176 155.416 308.822 153.584 309.103C156.581 301.825 162.547 191.083 159.495 184.564C156.442 178.045 17.2207 150.647 4.20598 146.966C4.78479 146.332 5.48947 145.829 6.27378 145.49C7.0581 145.151 7.90434 144.984 8.75698 144.999C12.6142 144.718 154.972 176.921 163.241 181.529C164.629 185.575 163.241 213.76 163.047 218.396C162.547 229.58 157.996 304.776 157.885 306.293ZM232.81 287.269C229.564 291.653 218.047 291.119 212.636 290.613H211.304C213.773 285.587 215.172 280.092 215.411 274.484C218.186 273.697 228.343 271.308 229.897 273.837C230.368 274.568 228.87 275.439 228.093 275.861C226.041 276.825 223.892 277.56 221.683 278.052C221.355 278.116 221.066 278.308 220.879 278.588C220.691 278.867 220.621 279.21 220.684 279.542C220.746 279.873 220.936 280.166 221.212 280.356C221.488 280.546 221.827 280.617 222.154 280.553C224.929 280.16 232.505 279.092 235.197 280.019C234.088 281.578 232.496 282.716 230.674 283.251C228.079 283.233 225.488 283.449 222.931 283.897C222.563 283.968 222.233 284.173 222.005 284.474C221.776 284.775 221.665 285.15 221.693 285.529C221.72 285.908 221.884 286.263 222.154 286.527C222.423 286.791 222.779 286.945 223.153 286.96C225.972 287.043 228.785 286.654 231.478 285.808C232.18 285.838 232.869 286.01 233.504 286.314C233.326 286.692 233.06 287.02 232.727 287.269H232.81ZM259.062 286.286C258.944 286.724 258.724 287.126 258.42 287.459C258.115 287.791 257.736 288.045 257.314 288.197C252.18 291.007 239.221 290.501 233.449 289.911C235.585 288.253 236.834 285.555 234.67 284.066C238.943 281.256 238.499 278.249 235.696 277.378C233.881 276.933 232.005 276.8 230.146 276.985C231.895 275.664 232.533 274.175 231.478 272.573C229.952 270.381 225.928 270.662 223.431 271.084C222.243 259.959 221.631 248.778 221.599 237.588C229.009 243.04 253.567 243.208 262.142 238.038C262.558 247.48 259.756 282.183 258.951 286.286H259.062ZM235.252 279.907C235.252 279.907 235.169 279.963 235.169 279.907H235.252ZM294.804 280.525C299.938 265.323 300.659 233.121 300.354 217.019C304.655 224.016 328.104 257.568 328.27 257.849C328.84 258.731 329.511 259.542 330.268 260.265C335.86 265.439 342.136 269.799 348.916 273.219C356.159 277.097 356.742 276.9 356.686 277.209L355.715 281.424C355.243 281.396 299.05 280.525 294.721 280.525H294.804ZM306.764 293.142C312.73 288.927 353.301 290.838 353.745 290.557V290.866C349.86 309.693 348.361 316.493 347.89 318.966C348.139 317.87 349.666 310.536 351.414 302.415C352.635 296.458 354.189 289.377 355.771 281.874C356.492 278.446 356.964 276.254 356.992 276.085C349.388 272.011 337.789 264.986 331.711 258.776C330.185 257.202 300.687 215.811 300.409 215.333C300.132 214.856 300.132 202.52 299.827 201.958C299.769 201.894 299.692 201.85 299.609 201.832C299.525 201.813 299.438 201.822 299.359 201.855C299.28 201.889 299.213 201.947 299.168 202.02C299.122 202.094 299.1 202.18 299.105 202.267C298.828 202.267 299.105 262.345 293.971 280.441L262.003 280.75C262.198 279.176 262.392 277.35 262.614 275.383C275.49 277.041 281.345 262.738 277.932 251.076C275.906 244.67 270.689 243.686 264.723 246.777C265 243.036 265 239.279 264.723 235.537C264.98 234.891 265.025 234.179 264.85 233.505C264.675 232.832 264.29 232.234 263.752 231.8C259.617 227.866 248.045 227.444 242.412 227.444C236.779 227.444 225.179 227.894 221.072 231.8C220.713 232.081 220.427 232.448 220.24 232.868C218.131 236.717 222.182 270.465 222.682 271.196C220.265 271.683 217.883 272.331 215.55 273.135V268.639C215.383 258.832 184.414 253.381 183.36 247.789C182.999 245.878 182.416 241.607 181.75 236.549C178.004 208.786 178.559 209.854 177.949 209.854C177.846 209.854 177.747 209.895 177.674 209.969C177.601 210.043 177.56 210.143 177.56 210.247C177.56 211.006 180.557 241.579 181.639 248.07C182.722 254.561 213.469 260.855 213.607 268.639C213.607 274.709 212.275 289.77 207.086 291.934C203.95 293.283 179.697 294.519 160.355 287.635C160.771 282.183 168.486 184.592 164.767 180.264C163.352 178.607 146.73 174.392 144.621 173.858C152.946 154.75 159.106 139.014 216.993 129.825C218.601 135.281 220.566 140.623 222.876 145.814C228.759 158.543 238.721 172.284 252.513 171.104C268.358 169.727 270.911 152.333 268.386 136.457C268.219 135.333 268.053 134.602 267.914 133.956C275.528 134.727 283.096 135.909 290.586 137.496C303.656 140.306 319.723 145.645 328.687 155.705C338.371 166.495 346.835 183.159 352.774 196.478C361.321 215.642 361.265 220.588 368.619 231.631C363.448 248.153 359.113 264.932 355.632 281.902C354.522 287.157 352.857 295.165 351.275 302.443C348.972 313.683 347.584 320.793 347.723 319.303C347.473 320.821 347.723 320.765 347.723 321.13C338.676 317.044 329.947 312.272 321.61 306.855C318.697 304.888 303.823 295.25 306.764 293.086V293.142ZM264.501 252.51C264.501 251.048 264.667 249.7 264.723 248.295C269.746 246.243 274.213 246.552 275.573 251.863C278.348 261.502 273.964 274.343 262.78 274.343C262.78 272.994 263.252 269.145 263.308 268.723C276.073 270.465 275.989 246.805 264.501 252.51ZM263.419 267.515C263.807 263.075 264.14 258.382 264.418 253.971C265.746 253.555 267.168 253.555 268.497 253.971C271.799 255.179 271.272 266.784 263.28 267.515H263.419ZM354.189 329.869C343.511 326.332 333.18 321.798 323.331 316.325C320.556 314.835 306.181 306.911 305.21 303.848C304.371 301.114 304.285 298.199 304.96 295.418C308.679 302.752 332.266 315.088 339.842 318.713C343.311 320.371 346.89 321.779 350.554 322.928C363.374 327.565 418.375 320.118 431.889 318.432C432.055 319.022 433.221 323.546 433.665 325.176C421.899 326.553 365.233 332.819 354.05 329.869H354.189ZM478.176 400.54C474.124 404.025 449.815 406.947 438.355 403.35C434.192 402.03 433.36 400.681 432.361 396.41C431.451 391.775 430.875 387.079 430.64 382.36C436.329 385.9 446.763 386.799 453.451 386.996C463.524 387.221 473.431 386.996 481.534 382.36C481.367 385.338 480.424 398.601 478.176 400.54ZM481.617 381.264C476.143 383.635 470.255 384.868 464.301 384.889C456.364 385.282 437.772 385.226 430.585 381.348C430.279 376.065 430.085 370.417 430.002 365.162C432.777 368.534 447.568 370.052 453.478 370.249C464.023 370.473 473.819 370.249 482.255 365.191C482.255 364.91 482.172 371.569 481.645 381.264H481.617ZM482.255 364.207C468.38 371.288 433.942 368.085 429.974 364.207V346.926C438.799 350.101 473.68 349.876 482.422 346.926C482.366 350.157 482.394 356.732 482.283 364.207H482.255ZM476.705 345.296C476.805 345.324 476.911 345.313 477.003 345.267C477.095 345.22 477.167 345.14 477.205 345.043C477.205 345.043 477.205 344.537 477.371 343.638C479.16 343.887 480.924 344.291 482.644 344.846C476.566 347.656 439.992 347.909 430.862 345.183C430.8 345.164 430.746 345.125 430.707 345.071C430.669 345.018 430.648 344.954 430.648 344.888C430.648 344.822 430.669 344.758 430.707 344.705C430.746 344.652 430.8 344.613 430.862 344.593C433.406 343.893 436.006 343.423 438.632 343.188C438.816 343.97 439.095 344.725 439.465 345.436C439.687 345.661 440.047 345.689 440.02 345.127C439.992 344.565 430.89 308.176 429.502 300.167C430.921 300.646 432.435 300.766 433.91 300.517C435.386 300.267 436.778 299.655 437.966 298.734C441.019 307.389 450.759 346.335 451.342 346.335C451.447 346.328 451.546 346.281 451.618 346.202C451.69 346.124 451.73 346.021 451.73 345.914L450.925 342.12H454.755C454.755 342.654 455.06 345.38 455.088 345.577C455.116 345.773 455.92 346.251 455.865 345.211C455.865 342.682 453.534 300.785 453.478 300.027C453.877 299.832 454.296 299.681 454.727 299.577C455.032 301.094 464.8 341.165 465.55 344.284C465.55 344.565 465.55 345.043 466.077 344.93C466.604 344.818 466.382 344.312 466.077 342.486L470.323 342.795V343.273C470.323 343.722 471.016 343.61 471.1 343.273C471.1 343.582 476.261 289.658 476.65 285.358C477.381 285.92 478.222 286.318 479.116 286.526C480.011 286.734 480.939 286.748 481.839 286.567C481.783 286.988 476.095 345.099 476.677 345.296H476.705ZM451.73 289.433C451.401 286.73 450.235 284.202 448.4 282.211C452.202 283.363 453.007 284.206 453.95 286.848C454.701 288.952 454.901 291.217 454.533 293.423C454.158 294.812 454.158 296.277 454.533 297.666C454.079 297.772 453.634 297.913 453.201 298.088C451.48 293.114 447.651 293.17 447.651 288.168C447.646 286.36 447.384 284.562 446.874 282.829C448.218 285.296 449.691 287.687 451.286 289.995C451.564 290.36 452.091 289.826 451.758 289.433H451.73ZM453.118 324.895C453.256 326.272 454.339 338.215 454.616 341.249H450.648C449.815 337.456 448.567 331.836 447.151 325.822L453.118 324.895ZM452.951 322.731L446.624 323.574C446.069 321.242 445.486 318.882 444.904 316.549C447.457 316.184 449.954 315.791 452.368 315.397C452.479 316.606 452.868 321.495 452.979 322.731H452.951ZM461.581 321.439C461.137 319.303 460.055 314.47 459.972 314.189C462.386 313.768 470.6 312.335 472.293 311.997C472.293 313.206 471.821 318.32 471.71 319.612C469.018 320.202 465.577 320.821 461.526 321.439H461.581ZM471.599 321.439C471.1 328.717 470.323 340.884 470.295 341.558C468.852 341.558 467.326 341.502 465.716 341.39C465.05 337.99 462.192 324.361 461.998 323.434C465.744 322.675 468.963 322.001 471.627 321.355L471.599 321.439ZM476.899 283.026C477.238 279.465 477.785 275.928 478.537 272.432C479.277 272.208 480.058 272.154 480.822 272.275C481.585 272.397 482.312 272.691 482.949 273.135C482.783 276.666 482.412 280.185 481.839 283.672C481.589 284.656 481.534 284.909 480.895 284.993C479.647 285.077 477.121 284.01 476.927 282.942L476.899 283.026ZM480.535 316.521C480.784 314.442 481.034 312.334 481.256 310.227C482.9 309.878 484.515 309.399 486.085 308.794C485.21 311.93 483.25 314.643 480.562 316.437L480.535 316.521ZM485.169 306.462C483.998 306.933 482.792 307.309 481.561 307.586C482.061 302.865 485.002 275.383 485.002 273.444C485.002 270.634 480.063 269.594 477.51 270.634C476.65 271.027 476.4 272.685 476.15 274.147C474.763 281.986 473.125 301.544 472.487 309.496L459.472 311.913C456.226 297.582 456.503 298.369 456.142 298.003C455.894 297.764 455.569 297.625 455.227 297.61C454.97 296.359 455.037 295.062 455.421 293.845C455.995 291.414 455.918 288.873 455.199 286.482C454.829 284.744 453.842 283.204 452.424 282.155C450.166 280.943 447.73 280.108 445.209 279.682C445.077 279.646 444.938 279.643 444.804 279.672C444.67 279.701 444.545 279.762 444.439 279.85C444.333 279.938 444.25 280.05 444.195 280.177C444.141 280.305 444.117 280.443 444.127 280.581C444.186 280.82 444.26 281.055 444.349 281.284C446.513 286.511 445.015 288.899 446.513 292.018C448.012 295.137 450.537 295.615 451.453 299.212C451.453 299.493 452.23 312.475 452.257 313.262L444.404 314.526C443.849 312.391 440.047 297.189 438.549 295.699C435.774 292.889 427.837 296.036 427.449 298.509C427.199 299.914 431.001 314.976 431.362 316.409C417.07 318.516 401.919 320.427 388.516 321.692C382.66 322.226 346.891 325.541 348.889 319.612C351.664 306.63 357.214 282.801 358.324 277.8V277.406C358.324 276.985 358.518 276.563 358.324 277.8C358.324 277.378 358.49 277.125 358.546 276.985L365.483 249.812C366.399 246.468 372.698 223.735 375.889 222.133C382.966 218.593 499.266 203.363 509.089 210.022C510.754 217.244 490.303 303.033 485.197 306.49L485.169 306.462Z" fill="#F8F8F8"/>
<path d="M260.366 80.4531V78.2894C260.366 77.9391 260.229 77.6032 259.984 77.3555C259.74 77.1078 259.408 76.9687 259.062 76.9687C258.714 76.9686 258.379 77.1068 258.13 77.3538C257.881 77.6007 257.737 77.9366 257.73 78.2894V80.8184C257.792 81.1526 257.978 81.4499 258.25 81.6486C258.523 81.8472 258.86 81.9317 259.193 81.8847C259.525 81.8376 259.827 81.6625 260.035 81.3959C260.244 81.1292 260.342 80.7915 260.311 80.4531H260.366ZM437.717 253.381C436.912 252.594 435.774 251.666 434.72 252.004C432.971 252.566 431.223 257.062 430.474 258.916C428.37 264.451 426.699 270.145 425.479 275.945C426.617 278.923 445.82 275.018 448.428 273.725C449.261 273.332 449.15 272.32 448.872 271.421C446.126 264.844 442.36 258.754 437.717 253.381ZM426.228 275.58C426.728 273.247 433.055 255.376 435.219 253.746C438.577 255.685 445.32 267.599 447.124 272.095C444.626 273.107 427.671 277.462 426.228 275.58ZM200.288 335.18C200.01 335.376 193.961 339.254 193.683 339.535C193.617 339.563 193.561 339.61 193.522 339.67C193.482 339.73 193.461 339.8 193.461 339.872C193.461 339.944 193.482 340.015 193.522 340.075C193.561 340.135 193.617 340.182 193.683 340.21C195.237 340.659 200.426 341.249 202.008 341.418C239.97 331.779 240.22 331.78 239.748 331.78C240.003 331.744 240.235 331.611 240.396 331.407C240.556 331.202 240.632 330.943 240.608 330.684C240.608 330.206 239.859 326.89 239.637 325.879L200.288 335.18ZM273.825 68.7073C274.602 68.7073 276.128 69.0726 276.434 69.1007C278.118 69.2776 279.787 69.5782 281.429 69.9999L283.926 70.4495C284.021 70.4734 284.121 70.4627 284.209 70.4192C284.297 70.3757 284.367 70.3022 284.407 70.2117C284.447 70.1211 284.454 70.0192 284.427 69.9239C284.4 69.8287 284.34 69.7461 284.259 69.6908C282.811 68.4487 281.055 67.6323 279.181 67.3304C277.325 66.9274 275.393 67.0937 273.631 67.8081C273.573 67.821 273.517 67.8454 273.468 67.8799C273.419 67.9145 273.378 67.9584 273.345 68.0093C273.313 68.0602 273.291 68.117 273.281 68.1765C273.27 68.236 273.271 68.297 273.284 68.356C273.297 68.4151 273.321 68.471 273.355 68.5206C273.389 68.5702 273.433 68.6125 273.483 68.6451C273.533 68.6778 273.589 68.7 273.648 68.7107C273.707 68.7214 273.767 68.7202 273.825 68.7073ZM251.847 71.1801C252.596 71.0115 254.206 70.7586 254.622 70.7024C256.304 70.3305 258.011 70.0863 259.728 69.9718L262.503 69.6627C262.614 69.6627 262.719 69.6183 262.798 69.5392C262.876 69.4602 262.919 69.353 262.919 69.2412C262.919 69.1294 262.876 69.0222 262.798 68.9431C262.719 68.8641 262.614 68.8197 262.503 68.8197C260.714 68.0518 258.752 67.7951 256.829 68.0775C254.907 68.3599 253.097 69.1705 251.597 70.4214C251.531 70.4214 251.466 70.4372 251.408 70.4677C251.349 70.4981 251.298 70.5422 251.26 70.5964C251.221 70.6506 251.196 70.7133 251.186 70.7793C251.176 70.8453 251.182 70.9128 251.203 70.9762C251.223 71.0395 251.259 71.097 251.306 71.1437C251.353 71.1905 251.41 71.2253 251.473 71.2452C251.536 71.2651 251.603 71.2696 251.668 71.2583C251.733 71.247 251.794 71.2201 251.847 71.1801ZM279.597 76.0695C279.251 76.0695 278.92 76.2086 278.675 76.4563C278.43 76.704 278.293 77.0399 278.293 77.3902V79.9192C278.341 80.2695 278.524 80.5861 278.802 80.7996C279.081 81.013 279.432 81.1057 279.778 81.0572C280.123 81.0088 280.436 80.8232 280.647 80.5413C280.858 80.2593 280.949 79.9042 280.901 79.5539V77.3902C280.905 77.2157 280.874 77.0422 280.81 76.8803C280.746 76.7183 280.65 76.5712 280.528 76.4478C280.406 76.3244 280.261 76.2272 280.101 76.1622C279.941 76.0972 279.77 76.0656 279.597 76.0695ZM64.2294 320.034C68.0867 321.298 77.0777 324.698 81.2124 324.193C81.7119 324.193 82.2669 323.687 82.6277 322.788C85.4027 316.465 83.4047 284.319 82.4057 278.109C81.7119 273.641 65.7557 268.105 61.8984 271.28C59.4009 273.332 60.6497 297.132 60.9272 300.448C61.6487 308.457 60.8994 318.938 64.2294 320.034ZM63.1472 272.77C66.1442 270.578 80.0469 275.776 80.4909 278.39C81.1847 282.801 83.7654 319.893 80.9904 322.788C77.4107 323.321 67.9202 320.371 64.3404 319.247C61.8152 318.404 62.6754 307.22 62.2592 300.308C62.0649 295.643 61.7597 277.125 63.1472 272.77ZM260.339 97.285C260.27 97.2503 260.194 97.2323 260.117 97.2323C260.04 97.2323 259.964 97.2503 259.895 97.285C259.201 97.5379 258.785 98.3247 258.674 99.4768C258.584 102.454 259.571 105.362 261.449 107.654C261.889 108.262 262.446 108.775 263.085 109.161C263.725 109.547 264.435 109.799 265.173 109.901C265.911 110.003 266.662 109.954 267.381 109.756C268.1 109.558 268.772 109.216 269.357 108.75C271.03 107.356 272.344 105.572 273.187 103.551C273.263 103.394 273.302 103.221 273.302 103.045C273.302 102.87 273.263 102.697 273.187 102.54C272.327 101.191 270.273 103.102 260.339 97.285ZM260.089 98.2404C263.104 100.84 266.633 102.756 270.44 103.86C264.501 114.089 258.535 100.292 260.089 98.2404ZM266.888 91.6369C268.664 91.9741 273.575 91.3559 274.63 89.5294C275.157 88.6583 274.63 88.3773 273.464 84.7805C272.414 81.6557 271.182 78.5968 269.774 75.6199C269.274 74.8331 268.636 75.6199 268.997 76.0976C269.768 80.4058 270.996 84.6171 272.66 88.6583C270.651 89.6099 268.595 90.4541 266.499 91.1873C266.495 91.2427 266.502 91.2982 266.52 91.3509C266.538 91.4035 266.565 91.452 266.601 91.4938C266.637 91.5356 266.681 91.5697 266.73 91.5943C266.78 91.6188 266.833 91.6333 266.888 91.6369ZM369.23 383.849C379.636 377.161 371.533 371.007 364.651 373.93C362.958 370.81 362.57 370.558 359.101 370.726C341.091 371.653 259.756 390.705 258.979 391.014C254.872 392.728 265.306 417.541 269.441 420.8C270.384 421.531 270.079 421.671 280.263 419.648C280.929 425.774 283.565 436.508 289.726 436.845C292.597 436.313 295.393 435.426 298.051 434.204C303.197 439.388 308.676 444.223 314.451 448.676C320.834 453.003 361.626 404.755 367.731 399.135C369.479 398.545 371.033 398.152 370.839 393.768C376.112 392.785 380.191 389.497 377.388 384.776C375.501 381.91 372.227 382.36 369.23 383.849ZM370.201 376.206C371.339 376.627 371.921 377.077 371.561 378.229C370.813 379.99 369.718 381.577 368.342 382.893C367.605 380.608 366.744 378.366 365.761 376.178C367.197 375.653 368.771 375.663 370.201 376.206ZM340.675 375.278C341.702 380.196 342.395 382.865 343.7 387.389L324.469 391.071C323.363 387.005 322.076 382.992 320.612 379.044C324.247 378.341 337.706 375.784 340.675 375.278ZM312.231 412.792C313.249 416.322 314.753 419.69 316.699 422.795C311.371 425.409 306.348 427.797 302.075 429.764C300.541 425.052 298.385 420.571 295.664 416.445L312.231 412.792ZM304.378 412.792C303.44 407.909 302.254 403.079 300.826 398.32L323.026 393.459C324.237 398.219 325.7 402.909 327.41 407.509C319.779 409.139 311.815 410.965 304.378 412.679V412.792ZM313.619 412.932C313.313 412.483 311.426 413.157 331.85 408.408C332.211 410.496 332.975 412.492 334.098 414.281L317.837 422.346C316.871 418.989 315.452 415.783 313.619 412.82V412.932ZM333.044 408.099C343.589 405.626 353.273 403.266 359.961 401.468L335.458 413.579C335.004 411.583 334.196 409.688 333.071 407.987L333.044 408.099ZM328.354 407.228C327.464 402.434 326.334 397.688 324.968 393.009L343.922 388.289C343.922 388.429 345.198 392.757 345.781 394.611C346.058 395.454 348.417 402.254 348.556 402.367C342.812 403.659 328.798 407.003 328.326 407.116L328.354 407.228ZM319.779 379.325C320.695 384.439 321.555 387.755 322.554 391.576L300.354 396.522C299.05 392.054 298.162 389.132 296.247 384.074C300.576 383.062 316.449 379.859 319.807 379.212L319.779 379.325ZM295.331 384.242C296.414 389.862 297.218 392.813 298.384 396.972C296.525 397.393 281.345 401.243 281.345 401.243C280.79 401.243 281.012 402.114 281.567 402.001C281.567 402.001 298.023 398.91 298.856 398.714C298.856 398.714 300.049 403.547 303.462 413.017L285.563 417.063C283.003 407.261 279.786 397.647 275.934 388.289L295.331 384.242ZM270.218 419.845C266 416.642 256.343 393.038 259.256 391.745C259.256 391.745 265.611 390.34 275.157 388.317C277.536 398.165 280.711 407.798 284.648 417.119C270.051 420.435 270.689 420.098 270.245 419.733L270.218 419.845ZM289.643 434.794C284.953 434.794 282.15 424.538 281.318 419.873C281.318 419.339 279.847 419.873 294.36 416.81C295.082 416.67 293.944 416.473 297.413 423.779C298.408 426.075 299.635 428.259 301.076 430.298C297.425 432.068 293.639 433.534 289.754 434.682L289.643 434.794ZM315.506 446.821C309.864 442.818 304.444 438.503 299.272 433.895C304.045 431.9 309.456 429.343 314.118 427.095C317.768 431.391 321.903 435.239 326.439 438.56C324.552 440.189 318.142 446.203 315.617 446.709L315.506 446.821ZM327.244 437.717C323.579 433.574 319.475 429.851 315.006 426.617L332.433 417.934C334.861 420.458 337.672 422.573 340.758 424.2C336.394 428.773 331.925 433.242 327.355 437.604L327.244 437.717ZM341.702 423.301C339.387 420.909 336.753 418.856 333.876 417.204C345.809 411.106 352.663 407.397 363.791 401.158C358.851 405.57 346.308 418.552 341.813 423.189L341.702 423.301ZM368.175 396.887C366.982 397.758 350.637 401.805 349.222 402.142C347.455 392.949 344.863 383.938 341.48 375.222C346.863 374.295 357.519 372.412 361.487 372.862C362.024 373.501 362.489 374.198 362.875 374.941C360.981 376.244 359.414 377.976 358.296 379.999C358.019 380.702 358.74 381.067 359.101 380.73C360.489 379.242 362.112 377.999 363.902 377.049C365.161 379.683 366.254 382.396 367.176 385.17C364.711 386.877 362.488 388.919 360.572 391.239C360.211 391.689 360.322 392.026 360.572 392.166C361.238 392.56 361.293 391.548 367.842 387.614C368.504 389.889 368.877 392.241 368.952 394.611C368.813 395.117 368.73 396.41 368.286 396.775L368.175 396.887ZM375.085 389.356C373.846 390.794 372.285 391.911 370.534 392.616C370.278 390.613 369.88 388.631 369.341 386.687C371.144 385.76 373.947 384.579 374.891 386.294C375.246 386.688 375.467 387.187 375.522 387.718C375.577 388.249 375.463 388.784 375.196 389.244L375.085 389.356Z" fill="#F8F8F8"/>
</svg>
