<svg width="648" height="650" viewBox="0 0 648 650" fill="none" xmlns="http://www.w3.org/2000/svg">
<path d="M363.464 492.05C363.215 492.119 363.003 492.284 362.875 492.51C362.748 492.735 362.715 493.003 362.783 493.253C362.852 493.503 363.017 493.715 363.242 493.843C363.467 493.971 363.733 494.004 363.982 493.935C372.17 492.137 379.846 488.503 386.435 483.308C411.481 464.75 410.185 438.425 424.441 414.343C435.845 395.98 445.857 398.093 445.079 395.72C445.05 395.626 445.003 395.539 444.939 395.465C444.875 395.391 444.796 395.33 444.708 395.287C444.62 395.245 444.524 395.221 444.426 395.217C444.329 395.213 444.231 395.229 444.14 395.265C399.298 411.808 424.635 470.795 363.464 492.05ZM544.936 434.265C546.2 432.933 547.463 431.535 548.695 430.138C558.22 418.535 564.895 400.563 564.247 387.335C564.23 387.192 564.175 387.057 564.087 386.944C563.999 386.831 563.881 386.744 563.747 386.694C563.613 386.644 563.468 386.631 563.327 386.658C563.187 386.685 563.056 386.751 562.951 386.848C561.979 387.79 564.7 392.99 557.864 409.37C551.384 424.905 545.714 428.87 539.331 436.118C533.613 442.74 529.267 450.438 526.546 458.764C523.826 467.089 522.786 475.875 523.487 484.608C523.525 484.791 523.624 484.956 523.769 485.075C523.913 485.194 524.094 485.258 524.281 485.258C524.468 485.258 524.649 485.194 524.794 485.075C524.938 484.956 525.038 484.791 525.075 484.608C524.853 475.309 526.497 466.061 529.909 457.413C533.321 448.765 538.431 440.893 544.936 434.265ZM260.464 293.93C263.704 291.688 263.477 284.83 260.464 282.295C259.612 281.605 258.619 281.112 257.555 280.851C256.492 280.59 255.384 280.567 254.31 280.784C253.237 281.002 252.224 281.453 251.345 282.108C250.465 282.762 249.74 283.603 249.221 284.57C248.62 286.082 248.512 287.746 248.912 289.324C249.312 290.902 250.201 292.311 251.449 293.351C252.698 294.391 254.243 295.007 255.863 295.111C257.483 295.215 259.093 294.802 260.464 293.93ZM251.554 286.488C252.526 282.783 258.909 282.263 259.881 285.968C260.529 288.503 260.237 290.29 258.941 291.265C258.162 291.751 257.277 292.038 256.361 292.1C255.446 292.162 254.53 291.998 253.693 291.623C252.816 291.129 252.129 290.355 251.742 289.425C251.354 288.494 251.288 287.46 251.554 286.488ZM371.175 233.805C371.051 233.796 370.926 233.813 370.808 233.855C370.69 233.896 370.582 233.962 370.491 234.047C370.4 234.133 370.327 234.236 370.278 234.351C370.228 234.466 370.203 234.59 370.203 234.715C370.203 237.965 364.727 241.215 363.723 241.54C363.53 241.587 363.363 241.71 363.26 241.881C363.156 242.051 363.125 242.256 363.172 242.45C363.219 242.644 363.342 242.811 363.512 242.915C363.682 243.018 363.886 243.05 364.079 243.003C372.601 241.248 373.897 233.74 371.175 233.805ZM359.803 228.833C359.414 228.605 357.697 227.338 357.081 226.85C357.081 226.428 358.604 221 358.895 219.96C359.187 218.92 357.859 218.66 357.502 219.505C356.147 222.14 355.061 224.906 354.262 227.76C354.521 228.703 359.025 229.938 359.349 229.938C359.484 229.956 359.621 229.929 359.739 229.861C359.857 229.793 359.949 229.687 360.001 229.561C360.053 229.434 360.062 229.294 360.026 229.163C359.99 229.031 359.911 228.915 359.803 228.833ZM349.111 211.413C349.064 211.132 348.92 210.876 348.703 210.692C348.487 210.508 348.212 210.407 347.928 210.407C347.644 210.407 347.369 210.508 347.153 210.692C346.936 210.876 346.792 211.132 346.745 211.413C346.622 213.653 346.622 215.899 346.745 218.14C346.948 218.473 347.256 218.729 347.621 218.867C347.985 219.005 348.384 219.017 348.756 218.901C349.128 218.785 349.451 218.549 349.673 218.228C349.896 217.908 350.006 217.522 349.985 217.133C349.537 215.253 349.244 213.34 349.111 211.413ZM371.758 217.1C371.343 215.236 371.051 213.347 370.883 211.445C370.883 211.126 370.757 210.82 370.532 210.595C370.307 210.369 370.003 210.243 369.685 210.243C369.367 210.243 369.062 210.369 368.837 210.595C368.612 210.82 368.486 211.126 368.486 211.445C368.368 213.61 368.368 215.78 368.486 217.945C368.504 218.197 368.577 218.441 368.7 218.661C368.822 218.882 368.992 219.072 369.196 219.219C369.4 219.367 369.634 219.467 369.882 219.514C370.129 219.56 370.383 219.552 370.627 219.489C370.87 219.426 371.097 219.31 371.291 219.15C371.485 218.989 371.642 218.788 371.75 218.56C371.857 218.332 371.914 218.083 371.916 217.831C371.917 217.579 371.863 217.329 371.758 217.1Z" fill="white"/>
<path d="M625.32 172.835C625.093 152.588 618.322 144.593 597.424 145.21C591.462 145.21 485.158 146.283 477.544 146.543C472.439 146.544 467.389 147.595 462.704 149.63C460.015 150.703 445.954 157.755 444.398 161.493C442.714 164.158 444.69 240.078 444.398 255.743C442.147 254.457 439.833 253.285 437.465 252.233C437.037 250.098 436.128 248.089 434.809 246.36C433.489 244.631 431.794 243.227 429.851 242.255C426.87 241.085 423.047 242.483 420.844 240.37C418.64 238.258 422.593 237.12 423.014 233.87C423.001 231.617 422.741 229.371 422.237 227.175C420.284 215.394 417.556 203.755 414.072 192.335C411.156 182.943 408.11 174.98 399.719 169.878C399.719 154.083 398.131 61.5227 397.256 56.6152C396.394 51.7718 393.819 47.403 390.004 44.3106C386.189 41.2182 381.39 39.6096 376.488 39.7802C376.164 39.7802 153.187 39.7802 152.928 40.0402C144.018 45.3702 141.62 57.2652 141.037 66.0402C140.843 70.4277 144.666 159.023 146.189 187.168C130.41 187.493 50.7061 189.638 46.1377 192.075C35.8021 194.61 24.3649 201.825 22.1293 213.558C20.7361 221.098 23.5549 365.95 24.4945 372.808C25.1674 380.215 28.4668 387.134 33.7933 392.308C39.5929 397.41 47.4985 398.353 54.4645 398.613L202.306 395.818C187.855 428.643 171.202 475.183 160.186 504.14C160.134 504.223 160.106 504.319 160.106 504.416C160.106 504.514 160.134 504.61 160.186 504.693C163.167 507.63 166.422 510.275 169.906 512.59C164.624 530.693 165.208 531.7 164.041 533.163C154.03 545.48 141.944 552.663 130.021 553.833C124.481 554.45 119.005 555.425 117.061 560.82C115.474 565.728 119.686 569.01 124.61 570.375C127.85 571.253 149.947 576.16 153.22 576.55C156.119 577.038 159.095 576.373 161.514 574.698C163.847 572.975 171.526 563.875 174.474 561.145C169.128 587.145 165.402 578.858 178.135 584.415C178.313 584.51 178.51 584.565 178.711 584.574C178.912 584.584 179.113 584.549 179.299 584.471C179.485 584.393 179.652 584.275 179.787 584.125C179.921 583.975 180.021 583.796 180.079 583.603C182.347 577.103 197.705 539.955 203.958 530.303C205.481 569.563 205.222 567.515 205.772 567.678C207.943 568.23 210.308 568.75 212.738 569.238C212.738 574.698 212.9 580.288 213.354 586.398C213.354 586.593 213.095 586.918 212.836 587.438C204.8 605.118 195.793 612.333 186.008 616.688C181.667 618.638 175.673 621.303 175.835 627.315C175.835 632.515 181.148 634.173 186.3 633.978C194.044 633.718 204.055 632.678 208.591 632.45C221.551 631.67 221.875 629.2 227.383 618.053C228.647 615.485 230.137 612.43 230.98 610.935C232.502 629.2 230.494 631.898 232.988 631.768C239.76 631.41 242.708 633.263 242.708 630.825C242.968 624.13 245.948 597.805 247.504 591.338C247.504 590.59 246.985 590.168 246.208 590.005C247.18 583.96 249.448 572.065 249.739 569.888C251.359 569.66 252.979 569.4 254.243 569.108C254.599 569.108 254.243 570.83 259.718 548.178C299.052 563.745 341.01 567.483 378.659 558.61C379.987 563.778 389.61 599.008 394.859 614.445C396.647 619.489 399.029 624.3 401.954 628.778C402.7 629.493 403.963 630.76 405.194 630.76C406.426 630.76 407.786 629.038 408.11 627.283C408.434 625.528 403.348 574.275 401.63 555.783C409.328 553.87 416.793 551.112 423.889 547.56L434.387 582.53C434.694 583.051 435.157 583.462 435.709 583.706C436.262 583.949 436.877 584.013 437.467 583.887C438.057 583.761 438.594 583.453 439 583.006C439.407 582.558 439.663 581.994 439.733 581.393L438.728 539.5C443.634 536.293 448.331 532.776 452.79 528.97C454.815 530.934 457.092 532.617 459.562 533.975C459.816 534.116 460.114 534.15 460.393 534.071C460.672 533.992 460.909 533.806 461.052 533.553C463.746 529.466 466.77 525.607 470.092 522.015C469.444 526.208 468.18 534.788 468.018 537.453C468.014 537.625 468.044 537.796 468.108 537.955C468.171 538.115 468.267 538.26 468.388 538.382C468.509 538.503 468.654 538.599 468.813 538.663C468.972 538.727 469.143 538.757 469.314 538.753C472.755 538.645 476.19 539.095 479.488 540.085C468.925 545.188 464.098 549.51 464.746 553.085C466.011 559.469 467.788 565.74 470.059 571.838C471.809 576.908 473.623 582.173 479.066 584.383C504.014 594.978 541.08 587.243 566.125 576.68C587.38 568.328 590.49 554.808 588.611 535.698C588.222 532.058 584.01 531.635 575.165 531.863L596.711 504.53C603.191 496.763 597.553 497.023 595.512 481.78C597.464 484.681 599.808 487.295 602.478 489.548C602.637 489.672 602.819 489.763 603.015 489.813C603.21 489.864 603.413 489.873 603.612 489.84C604.487 489.678 603.806 490.133 611.842 475.638C611.994 475.373 612.052 475.065 612.005 474.763C611.958 474.461 611.808 474.185 611.582 473.98C608.051 471.055 599.53 464.23 599.53 464.23C603.922 463.188 608.25 461.885 612.49 460.33C613.5 460.069 614.416 459.523 615.127 458.757C615.839 457.991 616.318 457.037 616.507 456.008C616.928 453.473 616.961 402.415 617.026 395.46C617.026 394.323 615.211 393.998 615.017 395.233C611.226 421.005 593.827 442.455 571.601 448.858C572.314 445.965 574.128 439.693 573.124 437.97C569.459 435.656 565.56 433.739 561.492 432.25C565.542 429.943 574.906 423.93 575.586 422.078C576.007 421.005 573.934 370.858 573.836 365.365C573.82 365.139 573.733 364.923 573.588 364.75C573.442 364.576 573.245 364.454 573.025 364.4C572.806 364.345 572.574 364.362 572.365 364.448C572.156 364.534 571.979 364.685 571.86 364.878C565.587 377.303 556.307 387.952 544.871 395.85C543.542 396.76 533.984 401.863 533.239 402.545C530.842 404.853 533.822 407.68 535.086 409.468C535.993 410.703 539.104 414.895 539.719 415.773C528.314 417.17 525.301 413.238 524.718 415.773C523.597 419.084 522.085 422.248 520.214 425.198C520.882 428.046 521.738 430.847 522.774 433.583C520.875 433.896 518.938 433.896 517.039 433.583C516.701 433.51 516.347 433.566 516.048 433.74C515.748 433.914 515.524 434.194 515.419 434.525C514.512 437.483 513.799 439.953 513.151 442.26C509.224 435.579 504.896 429.143 500.191 422.988C497.891 405.373 489.596 384.8 472.068 382.07C485.255 376.545 493.906 362.343 495.979 347.945C502.2 347.945 592.078 347.685 595.706 347.945C615.373 348.498 624.154 340.958 626 320.84C626.746 312.813 625.32 174.298 625.32 172.835ZM177.908 559.78C177.99 559.436 177.939 559.073 177.764 558.766C177.59 558.458 177.306 558.228 176.969 558.123C174.344 557.148 172.336 559.455 170.878 561.113C167.187 565.619 163.134 569.815 158.76 573.658C156.33 574.828 128.045 568.945 124.513 567.84C122.612 567.408 120.959 566.24 119.912 564.59C119.503 563.391 119.548 562.083 120.038 560.914C120.528 559.745 121.429 558.798 122.569 558.253C125.064 556.725 126.911 556.855 133.909 555.555C140.908 554.255 147.841 552.988 160.024 541.483C161.721 539.852 163.302 538.104 164.754 536.25C166.777 540.761 170.182 544.507 174.474 546.943C180.224 549.504 186.646 550.131 192.78 548.73C189.54 555.23 180.598 575.543 178.362 581.75C176.58 581.035 174.766 580.385 172.984 579.865C174.99 573.266 176.635 566.561 177.908 559.78ZM462.445 381.81C457.888 382.006 453.362 382.659 448.934 383.76C434.422 385.406 419.831 386.252 405.227 386.295C403.088 373.295 403.736 375.7 403.186 372.093C402.959 370.533 402.635 368.388 403.769 367.705C419.288 360.75 435.424 354.445 450.878 347.653C454.118 350.025 454.378 349.733 454.669 349.538C454.808 349.387 454.885 349.19 454.885 348.985C454.885 348.78 454.808 348.583 454.669 348.433C453.405 347.151 452.074 345.936 450.684 344.793C438.246 333.635 429.582 318.867 425.898 302.543C425.855 302.349 425.737 302.18 425.57 302.073C425.403 301.967 425.2 301.931 425.007 301.974C424.814 302.017 424.645 302.135 424.539 302.303C424.433 302.471 424.397 302.674 424.44 302.868C427.185 319.845 435.939 335.26 449.096 346.288L404.417 364.813C403.125 365.193 401.99 365.979 401.177 367.055C398.941 366.445 396.92 365.218 395.345 363.513C386.921 356.72 383.551 361.368 372.665 370.013C371.612 370.809 370.616 371.678 369.684 372.613C363.929 367.478 358.194 362.322 352.48 357.143C351.022 354.998 337.738 309.043 332.294 290.583C336.502 280.349 343.291 271.389 351.994 264.583C353 267.665 354.268 270.655 355.784 273.52C358.214 275.86 361.357 274.723 364.403 273.975C363.564 275.722 363.08 277.619 362.98 279.555C362.88 281.491 363.165 283.428 363.82 285.253C366.114 290.411 369.696 294.889 374.22 298.253C385.301 308.003 384.75 307.743 385.398 307.743C385.697 307.728 385.981 307.604 386.195 307.395C386.41 307.185 386.541 306.905 386.564 306.605C387.666 295.263 391.295 292.143 401.533 288.535C407.133 286.702 411.87 282.878 414.854 277.784C417.838 272.689 418.862 266.677 417.733 260.878C424.505 260.929 431.252 260.054 437.789 258.278C438.098 258.208 438.366 258.018 438.536 257.75C438.706 257.482 438.764 257.158 438.696 256.848C438.696 256.295 438.469 255.645 438.307 254.963C485.579 278.005 514.382 349.798 476.248 376.48C472.1 379.266 467.384 381.087 462.445 381.81ZM473.332 385.515C481.658 387.303 488.624 394.323 493.16 406.673C514.804 465.335 464.357 536.413 401.728 552.923C401.339 548.99 399.2 526.175 398.779 524.485C398.469 522.993 397.613 521.672 396.382 520.78C392.396 518.57 385.56 521.008 381.931 523.153C378.472 525.456 375.38 528.273 372.762 531.505C372.762 532.545 377.298 552.143 378.27 556.14C338.891 564.401 297.96 560.875 260.561 546C266.328 521.95 273.974 489.028 276.113 478.823C298.404 485.778 329.735 485.128 330.059 485.095C330.163 485.068 330.254 485.007 330.32 484.921C330.385 484.836 330.42 484.732 330.42 484.624C330.42 484.516 330.385 484.412 330.32 484.327C330.254 484.241 330.163 484.18 330.059 484.153C312.077 478.14 296.557 462.638 286.384 440.473C270.734 407.355 238.27 407.745 225.634 424.223C207.36 448.013 204.412 517.238 204.12 525.59C202.986 527.67 196.474 540.443 194.011 545.643C174.571 550.29 169.031 539.143 166.666 534.365C166.277 533.553 166.471 535.698 172.498 514.345C175.738 515.938 198.774 524.095 198.806 521.69C199.066 494.065 205.74 428.35 223.819 413.238C236.779 402.578 264.805 404.43 277.214 413.66C285.103 420.883 291.557 429.54 296.233 439.173C306.634 461.565 324.551 478.173 344.444 482.333C369.943 480.09 399.524 439.335 407.981 413.27C423.598 393.413 449.356 382.038 473.332 385.515ZM524.038 517.693C524.081 517.887 524.199 518.055 524.366 518.162C524.533 518.269 524.735 518.305 524.929 518.261C525.122 518.218 525.29 518.1 525.397 517.932C525.503 517.765 525.539 517.562 525.496 517.368C523.454 506.903 517.687 497.868 514.058 488.118C507.773 471.445 512.341 453.538 517.655 436.605C520.025 437.049 522.474 436.731 524.653 435.695C526.435 434.298 525.01 431.925 523.001 425.945C524.653 423.439 525.95 420.716 526.856 417.853C531.92 419.055 537.186 419.121 542.279 418.048C542.477 417.997 542.66 417.9 542.813 417.765C542.966 417.63 543.086 417.461 543.162 417.271C543.237 417.081 543.267 416.876 543.249 416.672C543.231 416.468 543.165 416.271 543.056 416.098C540.886 413.238 535.151 405.405 534.859 404.82C534.568 404.235 534.859 404.3 535.799 403.878C551.286 396.808 563.985 384.767 571.892 369.655C572.281 380.283 573.545 419.835 573.188 421.428C568.154 425.083 562.847 428.342 557.312 431.178C557.071 431.311 556.874 431.514 556.748 431.76C556.621 432.006 556.57 432.284 556.602 432.559C556.633 432.834 556.745 433.094 556.923 433.305C557.102 433.516 557.339 433.669 557.604 433.745C562.188 435.318 566.632 437.274 570.888 439.595C571.471 440.538 569.43 447.98 569.074 449.898L565.834 450.548C565.511 450.632 565.234 450.838 565.059 451.123C564.884 451.407 564.825 451.748 564.894 452.075C565.736 457.828 567.648 471.998 567.648 471.998C558.349 463.32 558.414 458.51 556.405 458.315C556.206 458.29 556.004 458.316 555.817 458.39C555.63 458.463 555.465 458.583 555.336 458.738C540.101 476.47 531.548 499 531.166 522.405C531.202 522.581 531.298 522.739 531.436 522.852C531.575 522.965 531.748 523.027 531.927 523.027C532.106 523.027 532.279 522.965 532.418 522.852C532.557 522.739 532.652 522.581 532.688 522.405C533.909 500.259 542.099 479.072 556.081 461.89C559.303 467.459 563.534 472.375 568.555 476.385C568.769 476.576 569.038 476.694 569.322 476.723C569.607 476.751 569.894 476.689 570.141 476.545C570.389 476.401 570.585 476.183 570.702 475.921C570.818 475.659 570.849 475.366 570.791 475.085C570.791 475.085 568.458 459.258 567.551 452.823C589.615 448.89 608.569 430.073 614.952 406.088C614.952 419.445 614.498 452.563 614.498 452.888C614.498 455 614.498 457.015 612.619 457.958C607.305 459.83 601.898 461.425 596.419 462.735C596.195 462.795 595.991 462.913 595.828 463.079C595.665 463.245 595.549 463.451 595.493 463.677C595.436 463.903 595.441 464.139 595.508 464.363C595.574 464.586 595.698 464.787 595.868 464.945C597.391 466.18 606.139 473.363 609.023 475.67C609.023 475.67 605.07 483.243 603.061 486.98C599.776 483.931 597.055 480.322 595.026 476.32C594.895 476.093 594.692 475.915 594.45 475.814C594.208 475.713 593.94 475.694 593.687 475.76C593.433 475.826 593.208 475.974 593.046 476.181C592.884 476.388 592.794 476.642 592.79 476.905C593.698 498.615 600.631 495.788 594.896 502.905C575.132 527.833 571.666 535.893 550.379 542.198C554.656 522.698 569.3 514.8 575.165 500.728C578.405 493.025 577.692 484.478 580.252 476.743C582.034 471.374 584.947 466.454 588.793 462.315C592.64 458.176 597.329 454.917 602.543 452.758C602.732 452.693 602.888 452.556 602.976 452.376C603.064 452.196 603.077 451.989 603.013 451.799C602.948 451.609 602.811 451.453 602.632 451.365C602.453 451.276 602.246 451.263 602.057 451.328C595.267 453.731 589.275 457.978 584.75 463.596C580.225 469.213 577.344 475.981 576.428 483.145C575.035 493.123 575.327 498.03 569.106 506.773C562.237 516.36 550.994 524.843 547.366 543.01C541.731 544.417 535.964 545.223 530.161 545.415C529.481 539.598 525.917 536.185 523.39 536.055C521.057 531.96 496.465 494.423 487.393 486.2C497.425 468.091 502.038 447.463 500.677 426.79C504.565 432.543 511.207 443.333 512.374 445.445C501.066 489.19 519.534 495.755 524.038 517.693ZM472.943 519.123C472.942 518.893 472.876 518.669 472.752 518.477C472.628 518.284 472.452 518.131 472.244 518.035C472.036 517.939 471.806 517.905 471.579 517.937C471.353 517.968 471.14 518.064 470.966 518.213C466.823 522.338 463.061 526.831 459.724 531.635C457.816 530.518 456.025 529.212 454.378 527.735C462.208 520.909 469.31 513.285 475.567 504.985C509.976 546.39 508.324 545.188 509.296 544.408C509.372 544.356 509.437 544.289 509.487 544.211C509.536 544.133 509.57 544.046 509.585 543.955C509.6 543.864 509.597 543.771 509.575 543.681C509.553 543.591 509.513 543.507 509.458 543.433C507.19 539.988 484.088 510.933 477.058 502.775C480.396 498.147 483.448 493.317 486.194 488.313C499.154 501.02 519.275 534.463 521.154 537.615C519.365 540.196 518.529 543.322 518.789 546.455C514.696 547.602 510.395 547.791 506.218 547.008C501.26 546.033 482.728 536.9 470.578 536.543C471.355 533 472.586 522.178 473.04 519.123H472.943ZM388.12 523.25H388.67C391.198 522.665 395.15 521.788 396.09 524.355C396.576 526.11 406.361 623.058 406.361 626.048C406.413 626.519 406.362 626.996 406.21 627.445C406.059 627.894 405.812 628.305 405.486 628.648C397.062 625.398 376.326 539.175 375.516 531.863C378.781 527.811 383.165 524.815 388.12 523.25ZM43.1245 369.785C43.1245 362.343 38.1997 214.793 38.6857 209.463C39.5281 199.42 43.1245 194.903 51.0625 193.863C59.4541 192.238 137.797 189.995 146.351 189.768C146.545 193.018 146.707 195.293 146.772 195.715C147.131 198.272 148.347 200.63 150.219 202.402C152.092 204.174 154.51 205.254 157.075 205.465C157.075 205.14 154.937 205.465 221.875 205.693C221.875 215.833 222.491 263.478 222.523 265.72C203.472 266.435 183.838 267.215 180.079 267.573C179.561 267.573 179.107 268.515 179.302 268.97C184.939 282.945 210.049 339.69 217.08 354.25C217.736 355.905 218.863 357.329 220.32 358.345C221.227 359.71 222.296 361.238 223.56 362.765C213.289 370.988 209.596 380.088 203.634 393.413C176.191 393.998 64.9621 396.305 62.4673 396.208C55.5337 395.915 50.6413 393.9 47.5957 390.065C42.9625 384.54 43.1569 377 43.1245 369.785ZM417.96 239.98C418.64 242.45 421.2 243.783 425.153 243.88C431.957 243.588 434.873 249.47 436.104 256.23C429.481 257.529 422.762 258.279 416.016 258.473C415.821 258.475 415.629 258.522 415.455 258.611C415.281 258.7 415.13 258.829 415.014 258.986C414.898 259.144 414.819 259.326 414.785 259.519C414.751 259.712 414.762 259.91 414.817 260.098C415.852 263.808 415.862 267.73 414.846 271.445C413.83 275.16 411.827 278.529 409.05 281.19C400.334 289.608 386.37 284.96 384.329 304.363C381.413 301.828 370.624 292.63 368.42 289.933C364.63 285.545 363.107 278.265 366.995 273.683C375.32 272.318 383.735 271.568 392.17 271.44C392.359 271.44 392.54 271.365 392.674 271.231C392.807 271.097 392.882 270.915 392.882 270.725C392.882 270.536 392.807 270.354 392.674 270.22C392.54 270.086 392.359 270.01 392.17 270.01C382.465 269.32 372.712 270.02 363.204 272.09C359.575 273.098 357.793 273.813 356.173 270.4C355.363 268.678 350.536 253.923 349.693 251.193C348.203 247.65 349.11 248.723 351.832 247.033C354.498 249.293 357.492 251.134 360.709 252.493C360.709 252.883 362.394 258.05 362.653 258.993C362.763 259.774 363.153 260.488 363.749 261.002C364.345 261.516 365.107 261.795 365.893 261.788C373.449 262.484 381.061 261.374 388.107 258.55C395.152 255.725 401.43 251.266 406.426 245.538C406.525 245.401 406.57 245.233 406.553 245.065C406.536 244.897 406.457 244.742 406.332 244.629C406.207 244.516 406.045 244.453 405.877 244.453C405.709 244.453 405.546 244.515 405.421 244.628C400.403 249.715 394.374 253.687 387.726 256.285C381.078 258.883 373.96 260.049 366.833 259.708C364.565 259.545 364.856 260.033 362.945 253.208C371.693 255.678 373.896 252.33 370.786 255.418C370.684 255.539 370.628 255.692 370.627 255.851C370.626 256.009 370.68 256.163 370.779 256.286C370.879 256.409 371.018 256.493 371.173 256.525C371.328 256.556 371.489 256.532 371.628 256.458C383.413 247.619 392.011 235.173 396.122 221C396.152 220.908 396.163 220.812 396.155 220.716C396.146 220.62 396.118 220.526 396.073 220.441C396.028 220.356 395.966 220.281 395.891 220.221C395.815 220.161 395.729 220.116 395.636 220.09C393.952 219.505 395.086 222.853 387.18 235.82C383.94 222.82 386.111 209.073 382.612 196.008C382.564 195.822 382.446 195.663 382.282 195.566C382.118 195.468 381.922 195.44 381.737 195.488C381.552 195.535 381.394 195.654 381.296 195.819C381.199 195.983 381.171 196.18 381.218 196.365C381.786 199.13 382.154 201.932 382.32 204.75C375.419 197.893 360.839 186.94 349.337 189.443C346.859 189.519 344.511 190.572 342.801 192.372C341.091 194.173 340.156 196.576 340.2 199.063C337.414 195.293 339.358 189.54 341.885 186.355C348.559 177.613 360.418 173.355 372.244 170.105C382.709 167.31 396.706 167.7 404.644 177.19C408.087 181.926 410.575 187.292 411.966 192.985C416.105 205.815 418.991 219.018 420.584 232.408C420.708 232.948 420.683 233.511 420.511 234.038C420.34 234.564 420.03 235.035 419.612 235.398C418.966 235.953 418.473 236.667 418.184 237.47C417.894 238.273 417.817 239.138 417.96 239.98ZM219.445 353.47C216.4 346.97 186.3 280.02 181.505 268.97C192.229 268.97 313.243 264.518 315.349 264.453C319.464 277.713 343.44 357.793 343.44 358.475C343.44 358.475 314.798 359.19 299.344 359.808C273.262 346.613 249.124 348.043 231.563 357.37C221.648 356.948 221.195 357.143 219.445 353.47ZM342.565 218.66C342.112 208.91 342.565 202.118 344.088 201.435C349.661 198.9 360.061 198.185 371.628 201.858C373.086 202.345 377.752 204.783 382.45 206.765C382.968 217.165 382.45 228.183 385.69 238.258C382.826 243.295 379.147 247.82 374.803 251.648C355.201 254.248 343.44 238.518 342.5 218.66H342.565ZM372.308 413.01C371.531 414.505 384.718 424.45 386.143 425.523C390.809 429.943 385.106 432.348 380.376 428.09C354.456 404.723 332.359 377.943 303.556 361.953C320.339 361.4 341.107 360.783 344.671 360.75C348.268 364.228 390.031 403.455 400.82 412.75C370.688 412.978 372.6 412.49 372.244 413.01H372.308ZM404.125 412.555C403.801 412.263 349.045 362.635 346.939 360.165C345.708 358.085 322.996 280.768 317.779 265.2C320.98 267.39 323.353 270.595 324.518 274.3C326.462 279.858 348.527 353.958 348.624 354.315C348.889 356.115 349.691 357.792 350.924 359.125C359.446 367.348 395.604 400.238 407.365 409.988C406.685 410.833 406.004 411.678 405.356 412.555H404.125ZM401.76 381.323C396.122 380.868 394.34 380.218 392.947 381.94C392.494 382.655 391.198 384.248 389.545 383.89C389.259 383.823 388.989 383.698 388.753 383.521C388.517 383.345 388.32 383.122 388.174 382.865C388.028 382.609 387.936 382.325 387.905 382.032C387.873 381.739 387.902 381.442 387.99 381.16C389.578 379.665 391.23 378.365 392.72 376.773C392.8 376.66 392.84 376.525 392.834 376.387C392.828 376.249 392.776 376.117 392.686 376.013C392.597 375.908 392.475 375.836 392.34 375.809C392.206 375.782 392.066 375.801 391.943 375.863C390.29 376.935 388.703 378.658 386.824 379.795C386.669 379.797 386.516 379.833 386.376 379.901C386.236 379.968 386.112 380.065 386.014 380.185C385.626 380.343 385.206 380.409 384.789 380.378C384.371 380.347 383.966 380.219 383.605 380.005C383.245 379.792 382.938 379.497 382.71 379.145C382.481 378.793 382.337 378.393 382.288 377.975C382.288 375.375 385.074 373.653 386.694 371.735C387.342 371.085 386.37 370.11 385.69 370.728C383.954 372.198 382.339 373.806 380.862 375.538C378.995 376.133 377.09 376.6 375.16 376.935C374.285 376.935 375.16 377.488 371.336 374.205C375.323 370.455 379.663 367.102 384.296 364.195C392.17 358.995 393.628 367.998 400.723 369.038C400.717 373.155 401.063 377.265 401.76 381.323ZM409.05 408.103L376.423 378.853C377.606 378.618 378.775 378.315 379.922 377.943C379.896 378.648 380.034 379.351 380.325 379.993C380.616 380.636 381.053 381.203 381.6 381.647C382.146 382.092 382.789 382.403 383.477 382.555C384.164 382.707 384.877 382.697 385.56 382.525C385.69 383.215 385.98 383.863 386.407 384.419C386.834 384.974 387.386 385.421 388.017 385.722C388.649 386.023 389.343 386.17 390.042 386.151C390.741 386.132 391.426 385.947 392.04 385.613C396.511 383.565 392.04 382.785 399.265 383.435C400.205 383.435 401.209 383.63 402.181 383.663C402.473 385.19 402.764 386.588 403.088 387.92C403.166 388.186 403.329 388.419 403.551 388.583C403.774 388.748 404.044 388.834 404.32 388.83C462.251 387.595 433.804 379.568 408.985 408.103H409.05ZM331.29 287.073C327.629 274.755 325.717 264.81 318.33 262.275C318.33 262.665 321.084 261.853 225.18 265.525C225.18 249.698 224.5 211.413 224.402 205.595H340.556C339.649 219.668 340.556 234.845 350.276 245.31C349.11 245.765 347.036 246.74 346.55 247.553C347.745 252.805 349.349 257.956 351.346 262.958C342.653 269.111 335.698 277.42 331.16 287.073H331.29ZM317.974 186.615C317.974 182.065 316.937 157.593 316.71 153.108H324.972C324.972 157.723 325.588 182.098 325.782 186.583C323.19 186.518 320.566 186.55 317.974 186.615ZM270.508 187.59C270.54 178.75 269.406 104 269.244 94.2502H277.506C277.506 118.95 278.219 180.733 278.348 187.46L270.508 187.59ZM219.38 106.795H227.675C227.675 128.148 228.355 182.065 228.517 188.468H220.676C220.709 180.473 219.575 115.7 219.38 106.795ZM149.04 194.285C148.586 191.523 144.828 104.975 143.305 71.8252C142.949 61.6202 145.638 49.0752 152.474 43.2577C152.474 66.0077 155.39 191.555 156.038 202.93C154.132 202.378 152.439 201.254 151.188 199.709C149.937 198.163 149.187 196.271 149.04 194.285ZM446.31 167.278C446.044 165.156 446.55 163.01 447.736 161.233C450.272 159.23 452.995 157.477 455.868 156C452.628 161.85 453.47 160.225 455.188 262.925C452.515 260.882 449.736 258.983 446.861 257.238C446.537 240.858 446.375 181.318 446.407 167.278H446.31ZM474.628 203.385C476.133 201.242 478.134 199.495 480.458 198.296C482.783 197.096 485.362 196.478 487.976 196.495C501.163 196.495 505.958 212.225 508.55 225.03C510.818 235.073 510.98 246.903 518.27 255.093C552.161 285.903 554.72 242.905 575.327 244.563C581.807 245.31 586.116 251.258 590.749 255.548C592.73 257.779 595.508 259.137 598.481 259.325C601.453 259.514 604.38 258.519 606.625 256.555V302.738C598.655 302.738 497.437 301.99 486.324 302.12C483.619 296.44 480.432 291.003 476.798 285.87C477.187 281.938 474.79 206.895 474.725 203.385H474.628ZM487.588 304.33C502.492 304.558 597.067 304.818 606.884 304.818C606.898 306.056 606.974 307.292 607.111 308.523C607.135 308.784 607.254 309.028 607.445 309.208C607.636 309.388 607.886 309.491 608.148 309.498C610.06 309.498 609.185 312.455 608.861 224.315C608.861 224.1 608.776 223.893 608.624 223.741C608.472 223.588 608.266 223.503 608.051 223.503C607.836 223.503 607.63 223.588 607.478 223.741C607.326 223.893 607.241 224.1 607.241 224.315C607.241 230.1 606.884 249.21 606.852 252.98C606.109 254.155 605.098 255.136 603.904 255.844C602.709 256.551 601.364 256.965 599.98 257.05C598.595 257.136 597.21 256.891 595.938 256.336C594.666 255.781 593.543 254.932 592.661 253.858C583.297 244.108 574.031 235.983 560.488 248.528C549.407 260 543.316 269.685 528.088 259.773C521.922 256.477 517.275 250.907 515.128 244.238C510.008 225.81 511.434 197.373 489.791 193.603C486.897 193.306 483.975 193.726 481.281 194.825C478.586 195.924 476.202 197.669 474.336 199.908C474.336 194.968 473.98 190.158 473.785 185.153C473.785 184.946 473.703 184.747 473.557 184.601C473.412 184.455 473.214 184.373 473.008 184.373C472.801 184.373 472.604 184.455 472.458 184.601C472.312 184.747 472.23 184.946 472.23 185.153C472.23 190.548 473.915 265.883 474.433 282.425C469.44 275.871 463.699 269.926 457.326 264.713C457.326 252.33 456.224 171.925 456.095 166.953C455.9 157.918 459.497 152.685 467.791 150.508C474.595 148.623 596.938 146.738 608.569 148.33C616.28 149.305 620.687 156.878 621.788 163.443C623.149 171.6 623.538 306.443 623.57 308.23C623.83 324.155 621.95 342.323 605.426 344.565C601.7 345.085 509.522 345.313 496.141 345.183C496.555 331.085 493.647 317.088 487.652 304.33H487.588ZM392.72 51.3502C396.608 58.1752 394.405 56.2902 397.159 168.545C383.746 162.468 364.759 168.058 351.799 175.045V78.7477C351.799 78.0002 353.484 78.2277 342.079 78.2277C341.366 78.2277 341.431 71.5327 343.829 180.44C341.885 182.201 340.194 184.224 338.807 186.453H327.92C327.92 182.228 326.689 152.263 326.56 152.003C326.522 151.834 326.427 151.683 326.292 151.576C326.156 151.47 325.987 151.414 325.814 151.418C322.314 151.3 318.809 151.376 315.317 151.645C315.213 151.716 315.131 151.814 315.08 151.929C315.028 152.044 315.009 152.17 315.025 152.295C315.025 155.545 315.608 181.935 315.835 186.615L303.62 186.875C304.236 131.365 304.463 134.29 303.62 134.225C294.84 134.583 294.646 134.42 294.646 135.07V187.07L280.39 187.363C280.39 180.115 279.288 98.2152 279.061 93.4702C279.071 93.2565 278.999 93.047 278.861 92.8842C278.723 92.7213 278.528 92.6171 278.316 92.5927C278.316 92.5927 268.175 92.5927 267.851 92.9177C266.911 93.6652 268.369 183.918 268.369 187.623L252.979 187.915V139.393C252.865 139.347 252.737 139.347 252.623 139.393C243.68 139.393 243.778 139.393 243.778 140.108V188.11L230.623 188.5C229.716 104.585 228.971 106.113 229.295 106.113C229.296 105.904 229.221 105.703 229.083 105.547C228.946 105.391 228.756 105.292 228.55 105.268C228.55 105.268 218.473 105.268 218.149 105.528C217.048 106.21 218.603 182.975 218.603 188.76L200.783 189.085C200.88 62.4327 201.236 68.2502 200.394 68.2502L192.456 68.5427C191.905 68.5427 192.1 60.7752 192.1 189.215C178.751 189.475 179.14 189.215 178.945 189.735C178.883 189.837 178.848 189.952 178.844 190.071C178.841 190.19 178.868 190.308 178.924 190.413C178.979 190.519 179.061 190.607 179.162 190.671C179.262 190.734 179.378 190.77 179.496 190.775C199.163 190.775 318.265 189.573 337.673 188.988C335.729 193.96 336.085 199.453 340.589 202.345V203.06C321.862 203.613 161.611 203.06 158.728 203.06C158.728 198.803 155.099 50.1152 155.066 41.7952C177.52 41.7952 375.386 42.0877 380.538 42.9327C383.063 43.343 385.466 44.311 387.573 45.7667C389.68 47.2225 391.438 49.1296 392.72 51.3502ZM39.5605 197.275C35.8345 202.67 35.6401 209.69 35.6401 216.483C35.6401 217.978 40.1761 377.943 40.8565 381.843C41.244 384.673 42.2309 387.388 43.751 389.804C45.271 392.22 47.289 394.281 49.6693 395.85C45.8609 395.658 42.1378 394.649 38.7505 392.893C31.5577 388.928 28.8361 380.77 27.8641 376.253C26.1469 368.128 23.8789 228.573 24.2677 221.358C24.0409 209.398 28.0909 202.93 39.4957 197.275H39.5605ZM525.56 564.818C538.529 563.911 551.233 560.697 563.08 555.328C571.504 551.428 582.001 545.253 586.343 540.345C587.023 555.685 583.913 565.598 568.199 572.845C547.398 582.595 498.053 594.555 476.734 580.288C474.822 578.435 470.254 564.363 468.439 557.863C477.738 564.07 504.824 566.475 525.496 564.818H525.56ZM232.535 607.393C229.813 607.165 228.517 609.895 227.61 611.878C220.028 628.128 220.126 629.168 212.414 629.688C209.984 629.85 187.11 631.735 185.425 631.735C179.528 632.158 176.256 628.095 180.436 623.123C182.818 621.32 185.463 619.895 188.276 618.898C197.284 614.705 211.54 603.623 214.682 589.908C217.935 593.74 222.371 596.371 227.286 597.383C233.371 598.037 239.508 596.777 244.847 593.775C243.616 600.795 240.764 622.668 240.408 629.525C238.514 629.326 236.61 629.239 234.706 629.265C234.673 627.413 234.058 607.523 232.47 607.393H232.535ZM244.458 590.655C240.248 593.642 235.196 595.202 230.04 595.108C227.312 594.902 224.656 594.135 222.237 592.854C219.818 591.574 217.688 589.807 215.978 587.665C215.978 586.658 215.622 575.77 215.719 569.92C226.217 570.751 236.755 570.957 247.277 570.538C246.758 573.398 245.106 585 244.393 590.655H244.458Z" fill="white"/>
<path d="M566.999 171.145C567.183 171.108 567.347 171.008 567.465 170.863C567.584 170.718 567.648 170.536 567.648 170.349C567.648 170.161 567.584 169.98 567.465 169.835C567.347 169.69 567.183 169.59 566.999 169.553H561.556C520.829 170.82 522.158 170.788 522.19 171.925C522.223 173.063 520.959 173.323 566.999 171.145ZM568.36 178.75C561.103 178.75 532.72 179.14 525.43 179.725C525.175 179.77 524.943 179.903 524.776 180.102C524.609 180.302 524.517 180.554 524.517 180.814C524.517 181.074 524.609 181.326 524.776 181.525C524.943 181.725 525.175 181.858 525.43 181.903C532.85 181.903 561.07 180.44 568.393 180.148C568.551 180.109 568.692 180.018 568.791 179.888C568.891 179.759 568.943 179.599 568.939 179.436C568.935 179.272 568.876 179.115 568.77 178.99C568.665 178.866 568.52 178.781 568.36 178.75ZM561.232 190.71C556.178 190.905 539.945 190.71 524.458 190.71C524.115 190.71 523.785 190.847 523.542 191.091C523.299 191.335 523.162 191.665 523.162 192.01C523.162 192.355 523.299 192.686 523.542 192.929C523.785 193.173 524.115 193.31 524.458 193.31C527.698 193.538 558.089 192.27 561.265 192.14C561.454 192.136 561.633 192.056 561.764 191.919C561.895 191.782 561.966 191.598 561.961 191.409C561.957 191.219 561.878 191.039 561.741 190.908C561.604 190.777 561.421 190.706 561.232 190.71ZM456.839 28.3076C453.043 29.2429 449.57 31.1937 446.791 33.9523C444.013 36.711 442.032 40.174 441.061 43.9726C437.464 57.7851 449.938 72.8326 464.291 70.4276C467.428 69.7632 470.397 68.4635 473.015 66.6082C475.634 64.7529 477.847 62.3809 479.519 59.6376C481.154 56.6098 482.082 53.2495 482.233 49.8097C482.385 46.37 481.756 42.9406 480.394 39.7801C478.45 34.1901 472.683 25.2526 456.839 28.3076ZM464.68 55.7051C458.427 60.0276 451.105 52.1626 453.988 47.3201C459.172 38.6751 468.374 45.2076 468.601 48.4576C468.597 49.9006 468.234 51.3197 467.543 52.5856C466.853 53.8515 465.857 54.9239 464.648 55.7051H464.68ZM464.291 40.9176C462.105 40.2274 459.752 40.2836 457.6 41.0775C455.449 41.8713 453.62 43.358 452.401 45.3051C451.404 47.058 451.028 49.0977 451.334 51.0922C451.64 53.0868 452.61 54.9188 454.085 56.2901C455.261 57.4222 456.707 58.2327 458.284 58.6441C459.862 59.0556 461.518 59.0542 463.095 58.64C464.671 58.2259 466.116 57.4129 467.29 56.2788C468.464 55.1447 469.328 53.7274 469.799 52.1626C472.564 53.9816 475.657 55.2403 478.904 55.8676C477.757 58.675 475.997 61.189 473.755 63.225C471.512 65.2609 468.843 66.767 465.944 67.6326C452.984 71.4026 441.449 59.6051 442.907 46.8651C443.334 43.898 444.428 41.0669 446.105 38.5856C447.782 36.1043 450 34.0376 452.589 32.5414C455.179 31.0453 458.074 30.1589 461.055 29.949C464.037 29.7392 467.027 30.2114 469.799 31.3301C467.234 34.0497 465.337 37.3327 464.259 40.9176H464.291Z" fill="#AD6A6C"/>
<path d="M427.679 84.1101C435.585 83.6876 580.348 82.5826 590.911 79.4301C599.043 77.9351 601.829 74.1651 601.408 65.9426C601.408 63.2126 601.862 31.9151 601.019 26.3576C600.274 19.5001 596.613 16.2501 588.902 15.8276C582.422 15.2101 432.248 17.5501 425.152 19.0776C419.385 20.2151 415.432 22.3276 414.655 28.8276C414.298 30.8101 415.853 67.5026 416.048 71.0776C416.501 78.8126 420.357 83.3951 427.679 84.1101ZM440.315 81.9001C438.408 81.6695 436.575 81.0162 434.95 79.9876C433.325 78.9589 431.948 77.5807 430.919 75.9526C428.636 72.0071 427.46 67.5147 427.517 62.9526C427.161 57.4276 426.124 36.9526 425.995 32.0126C425.995 29.9976 425.995 23.3026 430.919 20.8976C438.533 20.1176 580.381 18.0051 586.439 18.2001C589.679 18.2001 594.053 18.4601 596.516 20.9626C600.145 24.6351 598.978 30.7126 599.205 65.6501C599.918 74.5551 596.548 76.5051 588.254 77.7076C580.802 78.8451 441.611 81.9001 440.38 81.9001H440.315ZM423.791 27.8851C423.37 30.8101 425.087 58.7601 425.249 62.4651C425.638 71.6626 428.263 78.1951 433.447 81.9651H430.207C422.301 81.9651 418.705 78.1626 418.348 70.0701C418.154 65.4551 416.663 31.0701 416.987 29.1201C417.668 23.2051 421.653 21.9051 426.934 21.2551C425.297 23.1241 424.229 25.4252 423.856 27.8851H423.791Z" fill="#AD6A6C"/>
<path d="M500.257 36.3025C501.455 36.3025 538.651 35.36 538.327 35.36C538.494 35.3245 538.643 35.2325 538.751 35.0993C538.859 34.9662 538.917 34.8001 538.917 34.6288C538.917 34.4574 538.859 34.2913 538.751 34.1582C538.643 34.0251 538.494 33.933 538.327 33.8975C535.573 33.8975 503.464 33.345 500.192 33.8975C499.942 33.9882 499.727 34.1555 499.578 34.3755C499.428 34.5956 499.352 34.8573 499.359 35.1235C499.366 35.3897 499.457 35.6468 499.618 35.8585C499.779 36.0701 500.002 36.2255 500.257 36.3025ZM549.731 46.5075C545.066 46.9625 498.215 45.37 497.891 47.7425C497.891 48.1975 498.312 48.555 498.637 48.62C502.719 49.1075 549.569 48.1 549.893 48.0675C549.995 48.0568 550.094 48.0261 550.185 47.977C550.275 47.928 550.355 47.8616 550.419 47.7816C550.484 47.7016 550.533 47.6097 550.562 47.5109C550.591 47.4122 550.601 47.3087 550.59 47.2063C550.579 47.1038 550.549 47.0045 550.5 46.914C550.451 46.8234 550.385 46.7434 550.305 46.6785C550.225 46.6136 550.133 46.5651 550.035 46.5358C549.937 46.5065 549.833 46.4968 549.731 46.5075ZM548.792 58.9875C540.789 58.9875 500.451 58.7925 498.345 59.15C498.138 59.2051 497.954 59.3274 497.823 59.4979C497.693 59.6683 497.622 59.8774 497.622 60.0925C497.622 60.3076 497.693 60.5167 497.823 60.6872C497.954 60.8576 498.138 60.9799 498.345 61.035C500.581 61.3925 545.519 60.3525 548.824 60.255C548.967 60.2188 549.093 60.135 549.181 60.0175C549.27 59.9 549.316 59.7557 549.313 59.6083C549.309 59.4609 549.255 59.3191 549.161 59.2063C549.066 59.0935 548.936 59.0164 548.792 58.9875ZM90.7205 267.183C112.655 265.395 124.287 237.055 107.245 221.325C106.629 220.773 107.795 219.538 89.8457 245.57C68.1377 224.933 69.3041 225.713 68.8181 226.07C51.6461 243.068 68.6561 269.003 90.7205 267.183Z" fill="#AD6A6C"/>
<path d="M88.3225 234.91C88.9381 235.593 88.6465 235.69 103.324 210.86C103.359 210.805 103.383 210.743 103.394 210.679C103.404 210.614 103.402 210.548 103.387 210.484C103.372 210.421 103.344 210.361 103.306 210.308C103.267 210.255 103.218 210.211 103.162 210.178C97.9859 207.445 92.0559 206.503 86.2915 207.496C80.5271 208.489 75.2505 211.362 71.2801 215.67C70.8913 216.158 70.3081 215.215 88.3225 234.91ZM54.4645 355.323C55.2955 355.317 56.1063 355.065 56.795 354.599C57.4836 354.132 58.0192 353.471 58.3344 352.7C58.6496 351.929 58.7303 351.081 58.5663 350.264C58.4023 349.447 58.001 348.697 57.4129 348.108C59.0329 345.475 69.5305 328.153 72.6085 323.473C73.4062 323.843 74.2965 323.963 75.1634 323.818C76.0303 323.673 76.8335 323.27 77.4685 322.66L92.4373 334.23C92.1932 334.954 92.1497 335.732 92.3113 336.479C92.473 337.226 92.8338 337.915 93.3552 338.473C93.8767 339.031 94.5392 339.436 95.2723 339.646C96.0053 339.856 96.7813 339.862 97.5176 339.664C98.2539 339.466 98.9229 339.071 99.4532 338.522C99.9835 337.973 100.355 337.29 100.529 336.545C100.702 335.801 100.671 335.023 100.439 334.295C100.206 333.566 99.7813 332.915 99.2089 332.41L104.522 325.39C105.473 325.827 106.552 325.895 107.55 325.584C108.549 325.272 109.397 324.601 109.933 323.7L125.42 328.965C125.337 329.664 125.429 330.373 125.688 331.028C125.946 331.682 126.364 332.261 126.903 332.712C127.442 333.163 128.085 333.472 128.773 333.611C129.461 333.75 130.173 333.714 130.844 333.506C131.514 333.299 132.123 332.926 132.614 332.423C133.104 331.92 133.462 331.301 133.654 330.624C133.846 329.947 133.866 329.232 133.713 328.545C133.559 327.858 133.237 327.22 132.775 326.69C134.071 322.043 145.282 287.69 146.416 284.44C147.504 284.345 148.513 283.833 149.234 283.01C152.312 285.448 161.546 292.37 164.527 294.385C164.357 295.058 164.354 295.762 164.52 296.436C164.686 297.11 165.014 297.733 165.477 298.249C165.939 298.765 166.521 299.159 167.172 299.396C167.822 299.633 168.52 299.706 169.205 299.608C169.89 299.51 170.541 299.244 171.099 298.833C171.657 298.423 172.106 297.881 172.406 297.256C172.706 296.63 172.847 295.941 172.818 295.247C172.789 294.554 172.59 293.878 172.238 293.28C180.857 279.5 181.246 279.728 180.338 279.11C180.168 279.004 179.964 278.965 179.766 279.001C179.569 279.037 179.392 279.145 179.269 279.305C177.746 281.515 170.554 291.655 170.554 291.655C169.787 291.277 168.927 291.133 168.079 291.243C167.232 291.353 166.436 291.711 165.791 292.273C162.778 290.16 153.22 283.303 150.174 280.93C150.304 280.18 150.23 279.409 149.959 278.698C149.688 277.987 149.231 277.362 148.635 276.89C148.04 276.418 147.328 276.117 146.576 276.017C145.823 275.917 145.058 276.024 144.361 276.324C143.663 276.625 143.06 277.109 142.615 277.725C142.169 278.342 141.898 279.067 141.83 279.826C141.761 280.584 141.898 281.346 142.227 282.033C142.555 282.719 143.062 283.304 143.694 283.725C140.908 291.33 132.808 317.655 130.734 325.325C129.956 325.124 129.136 325.145 128.369 325.386C127.602 325.627 126.917 326.079 126.392 326.69C123.152 325.585 113.432 322.628 110.484 321.685C110.484 320.573 110.044 319.507 109.26 318.721C108.476 317.934 107.413 317.493 106.304 317.493C105.196 317.493 104.133 317.934 103.349 318.721C102.565 319.507 102.125 320.573 102.125 321.685C102.132 322.613 102.439 323.514 103 324.253L97.2001 331.5C96.6446 331.378 96.0698 331.373 95.5122 331.485C94.9545 331.596 94.426 331.823 93.9601 332.15L78.5053 320.418C78.674 319.412 78.4712 318.378 77.9349 317.512C77.3986 316.645 76.5656 316.004 75.5921 315.709C74.6185 315.414 73.5711 315.485 72.6461 315.909C71.7211 316.333 70.982 317.081 70.5673 318.013C70.245 318.682 70.1138 319.429 70.1881 320.168C70.2624 320.908 70.5395 321.613 70.9885 322.205C67.9429 326.788 56.8945 344.5 55.3069 347.068C54.7254 346.921 54.1192 346.902 53.5296 347.011C52.94 347.12 52.3807 347.356 51.8897 347.701C51.3988 348.046 50.9876 348.493 50.6841 349.012C50.3806 349.53 50.1919 350.109 50.1309 350.707C50.0698 351.305 50.1378 351.91 50.3302 352.479C50.5227 353.049 50.835 353.57 51.2461 354.008C51.6572 354.446 52.1573 354.79 52.7126 355.017C53.268 355.244 53.8654 355.348 54.4645 355.323ZM110.84 366.828C110.6 366.828 110.369 366.923 110.199 367.094C110.029 367.265 109.933 367.496 109.933 367.738C109.933 367.979 110.029 368.21 110.199 368.381C110.369 368.552 110.6 368.648 110.84 368.648C116.51 368.648 183.06 366.048 185.36 366.015C185.512 365.981 185.647 365.897 185.744 365.776C185.84 365.655 185.893 365.504 185.893 365.349C185.893 365.194 185.84 365.043 185.744 364.922C185.647 364.801 185.512 364.716 185.36 364.683C176.321 364.715 116.64 366.178 110.84 366.828ZM139.32 343.59C139.526 343.59 139.724 343.508 139.87 343.362C140.016 343.215 140.098 343.017 140.098 342.81C140.098 342.603 140.016 342.405 139.87 342.259C139.724 342.112 139.526 342.03 139.32 342.03C136.76 342.03 127.494 341.478 125.323 341.575C124.945 341.575 124.583 341.726 124.315 341.994C124.048 342.262 123.898 342.626 123.898 343.005C123.898 343.384 124.048 343.748 124.315 344.016C124.583 344.284 124.945 344.435 125.323 344.435C127.462 344.695 136.631 343.818 139.32 343.59ZM104.684 347.75H90.7201C90.4181 347.764 90.1255 347.86 89.873 348.026C89.6204 348.193 89.4172 348.425 89.2847 348.697C89.1521 348.97 89.0951 349.273 89.1197 349.575C89.1442 349.878 89.2494 350.168 89.4241 350.415C90.2989 351.715 90.9793 350.708 104.749 349.538C104.92 349.456 105.064 349.325 105.162 349.163C105.26 349 105.308 348.812 105.301 348.623C105.295 348.433 105.232 348.249 105.123 348.094C105.013 347.939 104.861 347.819 104.684 347.75ZM49.4425 365.105C50.1229 365.105 59.9725 364.033 62.1433 363.935C62.3839 363.935 62.6146 363.839 62.7848 363.669C62.9549 363.498 63.0505 363.266 63.0505 363.025C63.0505 362.784 62.9549 362.552 62.7848 362.382C62.6146 362.211 62.3839 362.115 62.1433 362.115C60.8797 362.115 49.9285 362.57 49.1833 362.928C48.9855 363.047 48.8262 363.221 48.7248 363.429C48.6233 363.637 48.5839 363.87 48.6112 364.1C48.6386 364.33 48.7316 364.548 48.8791 364.726C49.0265 364.904 49.2222 365.036 49.4425 365.105Z" fill="#AD6A6C"/>
<path d="M163.782 308.75H164.301C178.071 307.515 177.585 308.457 178.168 307.807C178.276 307.68 178.346 307.525 178.372 307.36C178.398 307.195 178.378 307.026 178.314 306.872C178.251 306.717 178.146 306.584 178.012 306.485C177.877 306.386 177.718 306.327 177.552 306.312C172.725 306.312 168.189 305.89 163.847 306.085C162 306.117 162.162 308.75 163.782 308.75ZM91.336 280.377C90.9837 280.377 90.6458 280.518 90.3967 280.768C90.1476 281.018 90.0076 281.357 90.0076 281.71C90.0076 282.063 90.1476 282.402 90.3967 282.652C90.6458 282.902 90.9837 283.042 91.336 283.042C95.9692 283.042 114.016 281.385 118.39 280.93C118.597 280.89 118.784 280.779 118.919 280.616C119.053 280.453 119.127 280.248 119.127 280.036C119.127 279.825 119.053 279.62 118.919 279.456C118.784 279.293 118.597 279.182 118.39 279.142C113.886 279.5 95.8072 279.987 91.336 280.377ZM89.1328 287.982C88.8722 288.047 88.6442 288.205 88.4916 288.427C88.339 288.649 88.2723 288.919 88.3042 289.186C88.336 289.453 88.4641 289.7 88.6645 289.879C88.8648 290.059 89.1235 290.159 89.392 290.16C94.5112 290.16 114.599 288.34 119.654 288.307C119.877 288.307 120.091 288.218 120.249 288.06C120.407 287.901 120.496 287.687 120.496 287.462C120.496 287.238 120.407 287.023 120.249 286.865C120.091 286.706 119.877 286.617 119.654 286.617C109.461 286.392 99.265 286.848 89.1328 287.982ZM117.062 293.182C108.583 293.06 100.103 293.396 91.66 294.19C90.1048 294.385 90.04 296.757 91.66 296.757C94.5436 296.757 110.29 295.132 117.094 294.872C117.205 294.87 117.314 294.846 117.415 294.802C117.517 294.757 117.608 294.693 117.685 294.613C117.762 294.534 117.822 294.439 117.862 294.336C117.903 294.232 117.922 294.122 117.92 294.011C117.918 293.9 117.894 293.791 117.85 293.689C117.806 293.587 117.742 293.495 117.662 293.418C117.582 293.341 117.488 293.281 117.385 293.241C117.282 293.2 117.172 293.18 117.062 293.182ZM127.721 223.177C129.309 223.177 145.476 221.487 148.652 221.26C148.875 221.26 149.089 221.171 149.247 221.012C149.405 220.854 149.494 220.639 149.494 220.415C149.494 220.191 149.405 219.976 149.247 219.817C149.089 219.659 148.875 219.57 148.652 219.57C147.064 219.57 129.73 220.09 127.818 220.22C125.907 220.35 125.907 223.177 127.721 223.177ZM131.058 229.742C136.145 229.742 155.974 227.857 160.996 227.532C161.179 227.495 161.344 227.396 161.462 227.25C161.58 227.105 161.645 226.924 161.645 226.736C161.645 226.549 161.58 226.367 161.462 226.222C161.344 226.077 161.179 225.977 160.996 225.94C155.942 226.167 135.983 226.265 131.026 226.785C130.673 226.841 130.352 227.023 130.122 227.297C129.891 227.571 129.767 227.919 129.77 228.278C129.774 228.636 129.907 228.981 130.143 229.25C130.379 229.519 130.704 229.694 131.058 229.742Z" fill="#AD6A6C"/>
</svg>
